ISO-10303-21;
HEADER;
/* Generated by software containing ST-Developer
 * from STEP Tools, Inc. (www.steptools.com) 
 */
/* OPTION: using custom renumber hook */

FILE_DESCRIPTION(
/* description */ ('STEP AP242 Edition 2',
'CAx-IF Rec.Pracs.---Representation and Presentation of Product Manufa
cturing Information (PMI)---4.0---2014-10-13',
'CAx-IF Rec.Pracs.---3D Tessellated Geometry---0.4---2014-09-14','2;1',
'CAx-IF Rec.Pracs.---User Defined Attributes---1.5---2016-08-15'),
/* implementation_level */ '2;1');

FILE_NAME(
/* name */ 'Hex Shaft - Shaft',
/* time_stamp */ '2026-08-18T04:38:52Z',
/* author */ (''),
/* organization */ (''),
/* preprocessor_version */ 'ST-DEVELOPER v20',
/* originating_system */ 'ONSHAPE BY PTC INC, 1.219',
/* authorisation */ '  ');

FILE_SCHEMA (('AP242_MANAGED_MODEL_BASED_3D_ENGINEERING_MIM_LF { 1 0 10303 442 3 1 4 }'));
ENDSEC;

DATA;
#10=SHAPE_REPRESENTATION_RELATIONSHIP('','',#359,#11);
#11=ADVANCED_BREP_SHAPE_REPRESENTATION('',(#357),#613);
#12=PLANE('',#379);
#13=PLANE('',#383);
#14=PLANE('',#387);
#15=PLANE('',#388);
#16=PLANE('',#392);
#17=PLANE('',#396);
#18=PLANE('',#397);
#19=PLANE('',#398);
#20=PLANE('',#399);
#21=PLANE('',#400);
#22=PLANE('',#401);
#23=PLANE('',#402);
#24=LINE('',#518,#48);
#25=LINE('',#522,#49);
#26=LINE('',#527,#50);
#27=LINE('',#531,#51);
#28=LINE('',#536,#52);
#29=LINE('',#540,#53);
#30=LINE('',#545,#54);
#31=LINE('',#549,#55);
#32=LINE('',#554,#56);
#33=LINE('',#558,#57);
#34=LINE('',#560,#58);
#35=LINE('',#565,#59);
#36=LINE('',#581,#60);
#37=LINE('',#582,#61);
#38=LINE('',#583,#62);
#39=LINE('',#584,#63);
#40=LINE('',#585,#64);
#41=LINE('',#586,#65);
#42=LINE('',#588,#66);
#43=LINE('',#589,#67);
#44=LINE('',#590,#68);
#45=LINE('',#591,#69);
#46=LINE('',#592,#70);
#47=LINE('',#593,#71);
#48=VECTOR('',#409,1.);
#49=VECTOR('',#412,1.);
#50=VECTOR('',#417,1.);
#51=VECTOR('',#420,1.);
#52=VECTOR('',#425,1.);
#53=VECTOR('',#428,1.);
#54=VECTOR('',#433,1.);
#55=VECTOR('',#436,1.);
#56=VECTOR('',#441,1.);
#57=VECTOR('',#444,1.);
#58=VECTOR('',#447,1.);
#59=VECTOR('',#450,1.);
#60=VECTOR('',#471,1.);
#61=VECTOR('',#472,1.);
#62=VECTOR('',#473,1.);
#63=VECTOR('',#474,1.);
#64=VECTOR('',#475,1.);
#65=VECTOR('',#476,1.);
#66=VECTOR('',#479,1.);
#67=VECTOR('',#480,1.);
#68=VECTOR('',#481,1.);
#69=VECTOR('',#482,1.);
#70=VECTOR('',#483,1.);
#71=VECTOR('',#484,1.);
#72=ORIENTED_EDGE('',*,*,#160,.F.);
#73=ORIENTED_EDGE('',*,*,#161,.T.);
#74=ORIENTED_EDGE('',*,*,#162,.T.);
#75=ORIENTED_EDGE('',*,*,#163,.F.);
#76=ORIENTED_EDGE('',*,*,#164,.F.);
#77=ORIENTED_EDGE('',*,*,#165,.T.);
#78=ORIENTED_EDGE('',*,*,#166,.T.);
#79=ORIENTED_EDGE('',*,*,#167,.F.);
#80=ORIENTED_EDGE('',*,*,#168,.F.);
#81=ORIENTED_EDGE('',*,*,#169,.T.);
#82=ORIENTED_EDGE('',*,*,#170,.T.);
#83=ORIENTED_EDGE('',*,*,#171,.F.);
#84=ORIENTED_EDGE('',*,*,#172,.F.);
#85=ORIENTED_EDGE('',*,*,#173,.T.);
#86=ORIENTED_EDGE('',*,*,#174,.T.);
#87=ORIENTED_EDGE('',*,*,#175,.F.);
#88=ORIENTED_EDGE('',*,*,#176,.F.);
#89=ORIENTED_EDGE('',*,*,#177,.T.);
#90=ORIENTED_EDGE('',*,*,#178,.T.);
#91=ORIENTED_EDGE('',*,*,#179,.F.);
#92=ORIENTED_EDGE('',*,*,#180,.F.);
#93=ORIENTED_EDGE('',*,*,#181,.F.);
#94=ORIENTED_EDGE('',*,*,#182,.T.);
#95=ORIENTED_EDGE('',*,*,#183,.T.);
#96=ORIENTED_EDGE('',*,*,#184,.T.);
#97=ORIENTED_EDGE('',*,*,#184,.F.);
#98=ORIENTED_EDGE('',*,*,#185,.T.);
#99=ORIENTED_EDGE('',*,*,#185,.F.);
#100=ORIENTED_EDGE('',*,*,#186,.T.);
#101=ORIENTED_EDGE('',*,*,#186,.F.);
#102=ORIENTED_EDGE('',*,*,#187,.T.);
#103=ORIENTED_EDGE('',*,*,#188,.F.);
#104=ORIENTED_EDGE('',*,*,#160,.T.);
#105=ORIENTED_EDGE('',*,*,#189,.F.);
#106=ORIENTED_EDGE('',*,*,#164,.T.);
#107=ORIENTED_EDGE('',*,*,#190,.F.);
#108=ORIENTED_EDGE('',*,*,#168,.T.);
#109=ORIENTED_EDGE('',*,*,#191,.F.);
#110=ORIENTED_EDGE('',*,*,#172,.T.);
#111=ORIENTED_EDGE('',*,*,#192,.F.);
#112=ORIENTED_EDGE('',*,*,#176,.T.);
#113=ORIENTED_EDGE('',*,*,#193,.F.);
#114=ORIENTED_EDGE('',*,*,#181,.T.);
#115=ORIENTED_EDGE('',*,*,#187,.F.);
#116=ORIENTED_EDGE('',*,*,#162,.F.);
#117=ORIENTED_EDGE('',*,*,#194,.T.);
#118=ORIENTED_EDGE('',*,*,#183,.F.);
#119=ORIENTED_EDGE('',*,*,#195,.T.);
#120=ORIENTED_EDGE('',*,*,#178,.F.);
#121=ORIENTED_EDGE('',*,*,#196,.T.);
#122=ORIENTED_EDGE('',*,*,#174,.F.);
#123=ORIENTED_EDGE('',*,*,#197,.T.);
#124=ORIENTED_EDGE('',*,*,#170,.F.);
#125=ORIENTED_EDGE('',*,*,#198,.T.);
#126=ORIENTED_EDGE('',*,*,#166,.F.);
#127=ORIENTED_EDGE('',*,*,#199,.T.);
#128=ORIENTED_EDGE('',*,*,#200,.T.);
#129=ORIENTED_EDGE('',*,*,#201,.T.);
#130=ORIENTED_EDGE('',*,*,#200,.F.);
#131=ORIENTED_EDGE('',*,*,#202,.T.);
#132=ORIENTED_EDGE('',*,*,#201,.F.);
#133=ORIENTED_EDGE('',*,*,#203,.T.);
#134=ORIENTED_EDGE('',*,*,#202,.F.);
#135=ORIENTED_EDGE('',*,*,#203,.F.);
#136=ORIENTED_EDGE('',*,*,#195,.F.);
#137=ORIENTED_EDGE('',*,*,#182,.F.);
#138=ORIENTED_EDGE('',*,*,#193,.T.);
#139=ORIENTED_EDGE('',*,*,#179,.T.);
#140=ORIENTED_EDGE('',*,*,#196,.F.);
#141=ORIENTED_EDGE('',*,*,#177,.F.);
#142=ORIENTED_EDGE('',*,*,#192,.T.);
#143=ORIENTED_EDGE('',*,*,#175,.T.);
#144=ORIENTED_EDGE('',*,*,#197,.F.);
#145=ORIENTED_EDGE('',*,*,#173,.F.);
#146=ORIENTED_EDGE('',*,*,#191,.T.);
#147=ORIENTED_EDGE('',*,*,#171,.T.);
#148=ORIENTED_EDGE('',*,*,#198,.F.);
#149=ORIENTED_EDGE('',*,*,#169,.F.);
#150=ORIENTED_EDGE('',*,*,#190,.T.);
#151=ORIENTED_EDGE('',*,*,#167,.T.);
#152=ORIENTED_EDGE('',*,*,#199,.F.);
#153=ORIENTED_EDGE('',*,*,#165,.F.);
#154=ORIENTED_EDGE('',*,*,#189,.T.);
#155=ORIENTED_EDGE('',*,*,#163,.T.);
#156=ORIENTED_EDGE('',*,*,#194,.F.);
#157=ORIENTED_EDGE('',*,*,#161,.F.);
#158=ORIENTED_EDGE('',*,*,#188,.T.);
#159=ORIENTED_EDGE('',*,*,#180,.T.);
#160=EDGE_CURVE('',#204,#205,#236,.T.);
#161=EDGE_CURVE('',#204,#206,#24,.T.);
#162=EDGE_CURVE('',#206,#207,#237,.T.);
#163=EDGE_CURVE('',#205,#207,#25,.T.);
#164=EDGE_CURVE('',#208,#209,#238,.T.);
#165=EDGE_CURVE('',#208,#210,#26,.T.);
#166=EDGE_CURVE('',#210,#211,#239,.T.);
#167=EDGE_CURVE('',#209,#211,#27,.T.);
#168=EDGE_CURVE('',#212,#213,#240,.T.);
#169=EDGE_CURVE('',#212,#214,#28,.T.);
#170=EDGE_CURVE('',#214,#215,#241,.T.);
#171=EDGE_CURVE('',#213,#215,#29,.T.);
#172=EDGE_CURVE('',#216,#217,#242,.T.);
#173=EDGE_CURVE('',#216,#218,#30,.T.);
#174=EDGE_CURVE('',#218,#219,#243,.T.);
#175=EDGE_CURVE('',#217,#219,#31,.T.);
#176=EDGE_CURVE('',#220,#221,#244,.T.);
#177=EDGE_CURVE('',#220,#222,#32,.T.);
#178=EDGE_CURVE('',#222,#223,#245,.T.);
#179=EDGE_CURVE('',#221,#223,#33,.T.);
#180=EDGE_CURVE('',#224,#225,#34,.T.);
#181=EDGE_CURVE('',#226,#224,#246,.T.);
#182=EDGE_CURVE('',#226,#227,#35,.T.);
#183=EDGE_CURVE('',#227,#225,#247,.T.);
#184=EDGE_CURVE('',#228,#228,#248,.T.);
#185=EDGE_CURVE('',#229,#229,#249,.T.);
#186=EDGE_CURVE('',#230,#230,#250,.T.);
#187=EDGE_CURVE('',#231,#231,#251,.T.);
#188=EDGE_CURVE('',#204,#224,#36,.T.);
#189=EDGE_CURVE('',#208,#205,#37,.T.);
#190=EDGE_CURVE('',#212,#209,#38,.T.);
#191=EDGE_CURVE('',#216,#213,#39,.T.);
#192=EDGE_CURVE('',#220,#217,#40,.T.);
#193=EDGE_CURVE('',#226,#221,#41,.T.);
#194=EDGE_CURVE('',#206,#225,#42,.T.);
#195=EDGE_CURVE('',#227,#223,#43,.T.);
#196=EDGE_CURVE('',#222,#219,#44,.T.);
#197=EDGE_CURVE('',#218,#215,#45,.T.);
#198=EDGE_CURVE('',#214,#211,#46,.T.);
#199=EDGE_CURVE('',#210,#207,#47,.T.);
#200=EDGE_CURVE('',#232,#232,#252,.T.);
#201=EDGE_CURVE('',#233,#233,#253,.T.);
#202=EDGE_CURVE('',#234,#234,#254,.T.);
#203=EDGE_CURVE('',#235,#235,#255,.T.);
#204=VERTEX_POINT('',#516);
#205=VERTEX_POINT('',#517);
#206=VERTEX_POINT('',#519);
#207=VERTEX_POINT('',#521);
#208=VERTEX_POINT('',#525);
#209=VERTEX_POINT('',#526);
#210=VERTEX_POINT('',#528);
#211=VERTEX_POINT('',#530);
#212=VERTEX_POINT('',#534);
#213=VERTEX_POINT('',#535);
#214=VERTEX_POINT('',#537);
#215=VERTEX_POINT('',#539);
#216=VERTEX_POINT('',#543);
#217=VERTEX_POINT('',#544);
#218=VERTEX_POINT('',#546);
#219=VERTEX_POINT('',#548);
#220=VERTEX_POINT('',#552);
#221=VERTEX_POINT('',#553);
#222=VERTEX_POINT('',#555);
#223=VERTEX_POINT('',#557);
#224=VERTEX_POINT('',#561);
#225=VERTEX_POINT('',#562);
#226=VERTEX_POINT('',#564);
#227=VERTEX_POINT('',#566);
#228=VERTEX_POINT('',#570);
#229=VERTEX_POINT('',#573);
#230=VERTEX_POINT('',#576);
#231=VERTEX_POINT('',#579);
#232=VERTEX_POINT('',#595);
#233=VERTEX_POINT('',#598);
#234=VERTEX_POINT('',#601);
#235=VERTEX_POINT('',#604);
#236=CIRCLE('',#362,0.0068834);
#237=CIRCLE('',#363,0.0068834);
#238=CIRCLE('',#365,0.0068834);
#239=CIRCLE('',#366,0.0068834);
#240=CIRCLE('',#368,0.0068834);
#241=CIRCLE('',#369,0.0068834);
#242=CIRCLE('',#371,0.0068834);
#243=CIRCLE('',#372,0.0068834);
#244=CIRCLE('',#374,0.0068834);
#245=CIRCLE('',#375,0.0068834);
#246=CIRCLE('',#377,0.0068834);
#247=CIRCLE('',#378,0.0068834);
#248=CIRCLE('',#380,0.00635);
#249=CIRCLE('',#382,0.00635);
#250=CIRCLE('',#384,0.0059436);
#251=CIRCLE('',#386,0.0059436);
#252=CIRCLE('',#389,0.0059436);
#253=CIRCLE('',#391,0.0059436);
#254=CIRCLE('',#393,0.00635);
#255=CIRCLE('',#395,0.00635);
#256=EDGE_LOOP('',(#72,#73,#74,#75));
#257=EDGE_LOOP('',(#76,#77,#78,#79));
#258=EDGE_LOOP('',(#80,#81,#82,#83));
#259=EDGE_LOOP('',(#84,#85,#86,#87));
#260=EDGE_LOOP('',(#88,#89,#90,#91));
#261=EDGE_LOOP('',(#92,#93,#94,#95));
#262=EDGE_LOOP('',(#96));
#263=EDGE_LOOP('',(#97));
#264=EDGE_LOOP('',(#98));
#265=EDGE_LOOP('',(#99));
#266=EDGE_LOOP('',(#100));
#267=EDGE_LOOP('',(#101));
#268=EDGE_LOOP('',(#102));
#269=EDGE_LOOP('',(#103,#104,#105,#106,#107,#108,#109,#110,#111,#112,#113,
#114));
#270=EDGE_LOOP('',(#115));
#271=EDGE_LOOP('',(#116,#117,#118,#119,#120,#121,#122,#123,#124,#125,#126,
#127));
#272=EDGE_LOOP('',(#128));
#273=EDGE_LOOP('',(#129));
#274=EDGE_LOOP('',(#130));
#275=EDGE_LOOP('',(#131));
#276=EDGE_LOOP('',(#132));
#277=EDGE_LOOP('',(#133));
#278=EDGE_LOOP('',(#134));
#279=EDGE_LOOP('',(#135));
#280=EDGE_LOOP('',(#136,#137,#138,#139));
#281=EDGE_LOOP('',(#140,#141,#142,#143));
#282=EDGE_LOOP('',(#144,#145,#146,#147));
#283=EDGE_LOOP('',(#148,#149,#150,#151));
#284=EDGE_LOOP('',(#152,#153,#154,#155));
#285=EDGE_LOOP('',(#156,#157,#158,#159));
#286=FACE_BOUND('',#256,.T.);
#287=FACE_BOUND('',#257,.T.);
#288=FACE_BOUND('',#258,.T.);
#289=FACE_BOUND('',#259,.T.);
#290=FACE_BOUND('',#260,.T.);
#291=FACE_BOUND('',#261,.T.);
#292=FACE_BOUND('',#262,.T.);
#293=FACE_BOUND('',#263,.T.);
#294=FACE_BOUND('',#264,.T.);
#295=FACE_BOUND('',#265,.T.);
#296=FACE_BOUND('',#266,.T.);
#297=FACE_BOUND('',#267,.T.);
#298=FACE_BOUND('',#268,.T.);
#299=FACE_BOUND('',#269,.T.);
#300=FACE_BOUND('',#270,.T.);
#301=FACE_BOUND('',#271,.T.);
#302=FACE_BOUND('',#272,.T.);
#303=FACE_BOUND('',#273,.T.);
#304=FACE_BOUND('',#274,.T.);
#305=FACE_BOUND('',#275,.T.);
#306=FACE_BOUND('',#276,.T.);
#307=FACE_BOUND('',#277,.T.);
#308=FACE_BOUND('',#278,.T.);
#309=FACE_BOUND('',#279,.T.);
#310=FACE_BOUND('',#280,.T.);
#311=FACE_BOUND('',#281,.T.);
#312=FACE_BOUND('',#282,.T.);
#313=FACE_BOUND('',#283,.T.);
#314=FACE_BOUND('',#284,.T.);
#315=FACE_BOUND('',#285,.T.);
#316=CYLINDRICAL_SURFACE('',#361,0.0068834);
#317=CYLINDRICAL_SURFACE('',#364,0.0068834);
#318=CYLINDRICAL_SURFACE('',#367,0.0068834);
#319=CYLINDRICAL_SURFACE('',#370,0.0068834);
#320=CYLINDRICAL_SURFACE('',#373,0.0068834);
#321=CYLINDRICAL_SURFACE('',#376,0.0068834);
#322=CYLINDRICAL_SURFACE('',#381,0.00635);
#323=CYLINDRICAL_SURFACE('',#385,0.0059436);
#324=CYLINDRICAL_SURFACE('',#390,0.0059436);
#325=CYLINDRICAL_SURFACE('',#394,0.00635);
#326=ADVANCED_FACE('',(#286),#316,.T.);
#327=ADVANCED_FACE('',(#287),#317,.T.);
#328=ADVANCED_FACE('',(#288),#318,.T.);
#329=ADVANCED_FACE('',(#289),#319,.T.);
#330=ADVANCED_FACE('',(#290),#320,.T.);
#331=ADVANCED_FACE('',(#291),#321,.T.);
#332=ADVANCED_FACE('',(#292),#12,.T.);
#333=ADVANCED_FACE('',(#293,#294),#322,.T.);
#334=ADVANCED_FACE('',(#295,#296),#13,.F.);
#335=ADVANCED_FACE('',(#297,#298),#323,.T.);
#336=ADVANCED_FACE('',(#299,#300),#14,.T.);
#337=ADVANCED_FACE('',(#301,#302),#15,.F.);
#338=ADVANCED_FACE('',(#303,#304),#324,.T.);
#339=ADVANCED_FACE('',(#305,#306),#16,.T.);
#340=ADVANCED_FACE('',(#307,#308),#325,.T.);
#341=ADVANCED_FACE('',(#309),#17,.F.);
#342=ADVANCED_FACE('',(#310),#18,.T.);
#343=ADVANCED_FACE('',(#311),#19,.T.);
#344=ADVANCED_FACE('',(#312),#20,.T.);
#345=ADVANCED_FACE('',(#313),#21,.T.);
#346=ADVANCED_FACE('',(#314),#22,.T.);
#347=ADVANCED_FACE('',(#315),#23,.T.);
#348=CLOSED_SHELL('',(#326,#327,#328,#329,#330,#331,#332,#333,#334,#335,
#336,#337,#338,#339,#340,#341,#342,#343,#344,#345,#346,#347));
#349=STYLED_ITEM('',(#350),#357);
#350=PRESENTATION_STYLE_ASSIGNMENT((#351));
#351=SURFACE_STYLE_USAGE(.BOTH.,#352);
#352=SURFACE_SIDE_STYLE('',(#353));
#353=SURFACE_STYLE_FILL_AREA(#354);
#354=FILL_AREA_STYLE('',(#355));
#355=FILL_AREA_STYLE_COLOUR('',#356);
#356=COLOUR_RGB('',0.364705882352941,0.337254901960785,0.337254901960785);
#357=MANIFOLD_SOLID_BREP('Shaft',#348);
#358=SHAPE_DEFINITION_REPRESENTATION(#618,#359);
#359=SHAPE_REPRESENTATION('Shaft',(#360),#613);
#360=AXIS2_PLACEMENT_3D('',#513,#403,#404);
#361=AXIS2_PLACEMENT_3D('',#514,#405,#406);
#362=AXIS2_PLACEMENT_3D('',#515,#407,#408);
#363=AXIS2_PLACEMENT_3D('',#520,#410,#411);
#364=AXIS2_PLACEMENT_3D('',#523,#413,#414);
#365=AXIS2_PLACEMENT_3D('',#524,#415,#416);
#366=AXIS2_PLACEMENT_3D('',#529,#418,#419);
#367=AXIS2_PLACEMENT_3D('',#532,#421,#422);
#368=AXIS2_PLACEMENT_3D('',#533,#423,#424);
#369=AXIS2_PLACEMENT_3D('',#538,#426,#427);
#370=AXIS2_PLACEMENT_3D('',#541,#429,#430);
#371=AXIS2_PLACEMENT_3D('',#542,#431,#432);
#372=AXIS2_PLACEMENT_3D('',#547,#434,#435);
#373=AXIS2_PLACEMENT_3D('',#550,#437,#438);
#374=AXIS2_PLACEMENT_3D('',#551,#439,#440);
#375=AXIS2_PLACEMENT_3D('',#556,#442,#443);
#376=AXIS2_PLACEMENT_3D('',#559,#445,#446);
#377=AXIS2_PLACEMENT_3D('',#563,#448,#449);
#378=AXIS2_PLACEMENT_3D('',#567,#451,#452);
#379=AXIS2_PLACEMENT_3D('',#568,#453,#454);
#380=AXIS2_PLACEMENT_3D('',#569,#455,#456);
#381=AXIS2_PLACEMENT_3D('',#571,#457,#458);
#382=AXIS2_PLACEMENT_3D('',#572,#459,#460);
#383=AXIS2_PLACEMENT_3D('',#574,#461,#462);
#384=AXIS2_PLACEMENT_3D('',#575,#463,#464);
#385=AXIS2_PLACEMENT_3D('',#577,#465,#466);
#386=AXIS2_PLACEMENT_3D('',#578,#467,#468);
#387=AXIS2_PLACEMENT_3D('',#580,#469,#470);
#388=AXIS2_PLACEMENT_3D('',#587,#477,#478);
#389=AXIS2_PLACEMENT_3D('',#594,#485,#486);
#390=AXIS2_PLACEMENT_3D('',#596,#487,#488);
#391=AXIS2_PLACEMENT_3D('',#597,#489,#490);
#392=AXIS2_PLACEMENT_3D('',#599,#491,#492);
#393=AXIS2_PLACEMENT_3D('',#600,#493,#494);
#394=AXIS2_PLACEMENT_3D('',#602,#495,#496);
#395=AXIS2_PLACEMENT_3D('',#603,#497,#498);
#396=AXIS2_PLACEMENT_3D('',#605,#499,#500);
#397=AXIS2_PLACEMENT_3D('',#606,#501,#502);
#398=AXIS2_PLACEMENT_3D('',#607,#503,#504);
#399=AXIS2_PLACEMENT_3D('',#608,#505,#506);
#400=AXIS2_PLACEMENT_3D('',#609,#507,#508);
#401=AXIS2_PLACEMENT_3D('',#610,#509,#510);
#402=AXIS2_PLACEMENT_3D('',#611,#511,#512);
#403=DIRECTION('',(0.,0.,1.));
#404=DIRECTION('',(1.,0.,0.));
#405=DIRECTION('',(-1.,0.,0.));
#406=DIRECTION('',(0.,0.,1.));
#407=DIRECTION('',(-1.,0.,0.));
#408=DIRECTION('',(0.,0.,1.));
#409=DIRECTION('',(1.,0.,0.));
#410=DIRECTION('',(-1.,0.,0.));
#411=DIRECTION('',(0.,0.,1.));
#412=DIRECTION('',(1.,0.,0.));
#413=DIRECTION('',(-1.,0.,0.));
#414=DIRECTION('',(0.,0.,1.));
#415=DIRECTION('',(-1.,0.,0.));
#416=DIRECTION('',(0.,0.,1.));
#417=DIRECTION('',(1.,0.,0.));
#418=DIRECTION('',(-1.,0.,0.));
#419=DIRECTION('',(0.,0.,1.));
#420=DIRECTION('',(1.,0.,0.));
#421=DIRECTION('',(-1.,0.,0.));
#422=DIRECTION('',(0.,0.,1.));
#423=DIRECTION('',(-1.,0.,0.));
#424=DIRECTION('',(0.,0.,1.));
#425=DIRECTION('',(1.,0.,0.));
#426=DIRECTION('',(-1.,0.,0.));
#427=DIRECTION('',(0.,0.,1.));
#428=DIRECTION('',(1.,0.,0.));
#429=DIRECTION('',(-1.,0.,0.));
#430=DIRECTION('',(0.,0.,1.));
#431=DIRECTION('',(-1.,0.,0.));
#432=DIRECTION('',(0.,0.,1.));
#433=DIRECTION('',(1.,0.,0.));
#434=DIRECTION('',(-1.,0.,0.));
#435=DIRECTION('',(0.,0.,1.));
#436=DIRECTION('',(1.,0.,0.));
#437=DIRECTION('',(-1.,0.,0.));
#438=DIRECTION('',(0.,0.,1.));
#439=DIRECTION('',(-1.,0.,0.));
#440=DIRECTION('',(0.,0.,1.));
#441=DIRECTION('',(1.,0.,0.));
#442=DIRECTION('',(-1.,0.,0.));
#443=DIRECTION('',(0.,0.,1.));
#444=DIRECTION('',(1.,0.,0.));
#445=DIRECTION('',(-1.,0.,0.));
#446=DIRECTION('',(0.,0.,1.));
#447=DIRECTION('',(1.,0.,0.));
#448=DIRECTION('',(-1.,0.,0.));
#449=DIRECTION('',(0.,0.,1.));
#450=DIRECTION('',(1.,0.,0.));
#451=DIRECTION('',(-1.,0.,0.));
#452=DIRECTION('',(0.,0.,1.));
#453=DIRECTION('',(-1.,0.,0.));
#454=DIRECTION('',(0.,0.,1.));
#455=DIRECTION('',(-1.,0.,0.));
#456=DIRECTION('',(0.,0.,1.));
#457=DIRECTION('',(-1.,0.,0.));
#458=DIRECTION('',(0.,0.,1.));
#459=DIRECTION('',(-1.,0.,0.));
#460=DIRECTION('',(0.,0.,1.));
#461=DIRECTION('',(-1.,0.,0.));
#462=DIRECTION('',(0.,0.,1.));
#463=DIRECTION('',(-1.,0.,0.));
#464=DIRECTION('',(0.,0.,1.));
#465=DIRECTION('',(-1.,0.,0.));
#466=DIRECTION('',(0.,0.,1.));
#467=DIRECTION('',(-1.,0.,0.));
#468=DIRECTION('',(0.,0.,1.));
#469=DIRECTION('',(-1.,0.,0.));
#470=DIRECTION('',(0.,0.,1.));
#471=DIRECTION('',(0.,-1.,-9.79398172340803E-16));
#472=DIRECTION('',(0.,-0.5,0.866025403784438));
#473=DIRECTION('',(0.,0.5,0.866025403784439));
#474=DIRECTION('',(0.,1.,8.16165143617336E-16));
#475=DIRECTION('',(0.,0.5,-0.866025403784438));
#476=DIRECTION('',(0.,-0.5,-0.866025403784439));
#477=DIRECTION('',(-1.,0.,0.));
#478=DIRECTION('',(0.,0.,1.));
#479=DIRECTION('',(0.,-1.,-9.79398172340803E-16));
#480=DIRECTION('',(0.,-0.5,-0.866025403784439));
#481=DIRECTION('',(0.,0.5,-0.866025403784438));
#482=DIRECTION('',(0.,1.,8.16165143617336E-16));
#483=DIRECTION('',(0.,0.5,0.866025403784439));
#484=DIRECTION('',(0.,-0.5,0.866025403784438));
#485=DIRECTION('',(-1.,0.,0.));
#486=DIRECTION('',(0.,0.,1.));
#487=DIRECTION('',(-1.,0.,0.));
#488=DIRECTION('',(0.,0.,1.));
#489=DIRECTION('',(-1.,0.,0.));
#490=DIRECTION('',(0.,0.,1.));
#491=DIRECTION('',(-1.,0.,0.));
#492=DIRECTION('',(0.,0.,1.));
#493=DIRECTION('',(-1.,0.,0.));
#494=DIRECTION('',(0.,0.,1.));
#495=DIRECTION('',(-1.,0.,0.));
#496=DIRECTION('',(0.,0.,1.));
#497=DIRECTION('',(-1.,0.,0.));
#498=DIRECTION('',(0.,0.,1.));
#499=DIRECTION('',(-1.,0.,0.));
#500=DIRECTION('',(0.,0.,1.));
#501=DIRECTION('',(0.,-0.866025403784439,0.5));
#502=DIRECTION('',(0.,-0.5,-0.866025403784439));
#503=DIRECTION('',(0.,-0.866025403784438,-0.5));
#504=DIRECTION('',(0.,0.5,-0.866025403784438));
#505=DIRECTION('',(0.,8.16165143617336E-16,-1.));
#506=DIRECTION('',(0.,1.,8.16165143617336E-16));
#507=DIRECTION('',(0.,0.866025403784439,-0.5));
#508=DIRECTION('',(0.,0.5,0.866025403784439));
#509=DIRECTION('',(0.,0.866025403784438,0.5));
#510=DIRECTION('',(0.,-0.5,0.866025403784438));
#511=DIRECTION('',(0.,-9.79398172340803E-16,1.));
#512=DIRECTION('',(0.,-1.,-9.79398172340803E-16));
#513=CARTESIAN_POINT('',(0.,0.,0.));
#514=CARTESIAN_POINT('',(0.00979242615880967,0.,0.));
#515=CARTESIAN_POINT('',(-0.0537075738411903,0.,0.));
#516=CARTESIAN_POINT('',(-0.0537075738411903,0.00265682057354274,0.00635));
#517=CARTESIAN_POINT('',(-0.0537075738411903,0.0041708510272598,0.00547587410998516));
#518=CARTESIAN_POINT('',(-0.0537075738411903,0.00265682057354274,0.00635));
#519=CARTESIAN_POINT('',(0.0732924261588097,0.00265682057354274,0.00635));
#520=CARTESIAN_POINT('',(0.0732924261588097,0.,0.));
#521=CARTESIAN_POINT('',(0.0732924261588097,0.0041708510272598,0.00547587410998516));
#522=CARTESIAN_POINT('',(-0.0537075738411903,0.0041708510272598,0.00547587410998516));
#523=CARTESIAN_POINT('',(0.00979242615880967,0.,0.));
#524=CARTESIAN_POINT('',(-0.0537075738411903,0.,0.));
#525=CARTESIAN_POINT('',(-0.0537075738411903,0.00682767160080255,0.00087412589001485));
#526=CARTESIAN_POINT('',(-0.0537075738411903,0.00682767160080255,-0.000874125890014834));
#527=CARTESIAN_POINT('',(-0.0537075738411903,0.00682767160080255,0.00087412589001485));
#528=CARTESIAN_POINT('',(0.0732924261588097,0.00682767160080255,0.00087412589001485));
#529=CARTESIAN_POINT('',(0.0732924261588097,0.,0.));
#530=CARTESIAN_POINT('',(0.0732924261588097,0.00682767160080255,-0.000874125890014834));
#531=CARTESIAN_POINT('',(-0.0537075738411903,0.00682767160080255,-0.000874125890014834));
#532=CARTESIAN_POINT('',(0.00979242615880967,0.,0.));
#533=CARTESIAN_POINT('',(-0.0537075738411903,0.,0.));
#534=CARTESIAN_POINT('',(-0.0537075738411903,0.0041708510272598,-0.00547587410998515));
#535=CARTESIAN_POINT('',(-0.0537075738411903,0.00265682057354275,-0.00635));
#536=CARTESIAN_POINT('',(-0.0537075738411903,0.0041708510272598,-0.00547587410998515));
#537=CARTESIAN_POINT('',(0.0732924261588097,0.0041708510272598,-0.00547587410998515));
#538=CARTESIAN_POINT('',(0.0732924261588097,0.,0.));
#539=CARTESIAN_POINT('',(0.0732924261588097,0.00265682057354275,-0.00635));
#540=CARTESIAN_POINT('',(-0.0537075738411903,0.00265682057354275,-0.00635));
#541=CARTESIAN_POINT('',(0.00979242615880967,0.,0.));
#542=CARTESIAN_POINT('',(-0.0537075738411903,0.,0.));
#543=CARTESIAN_POINT('',(-0.0537075738411903,-0.00265682057354274,-0.00635));
#544=CARTESIAN_POINT('',(-0.0537075738411903,-0.0041708510272598,-0.00547587410998516));
#545=CARTESIAN_POINT('',(-0.0537075738411903,-0.00265682057354274,-0.00635));
#546=CARTESIAN_POINT('',(0.0732924261588097,-0.00265682057354274,-0.00635));
#547=CARTESIAN_POINT('',(0.0732924261588097,0.,0.));
#548=CARTESIAN_POINT('',(0.0732924261588097,-0.0041708510272598,-0.00547587410998516));
#549=CARTESIAN_POINT('',(-0.0537075738411903,-0.0041708510272598,-0.00547587410998516));
#550=CARTESIAN_POINT('',(0.00979242615880967,0.,0.));
#551=CARTESIAN_POINT('',(-0.0537075738411903,0.,0.));
#552=CARTESIAN_POINT('',(-0.0537075738411903,-0.00682767160080255,-0.000874125890014843));
#553=CARTESIAN_POINT('',(-0.0537075738411903,-0.00682767160080255,0.00087412589001483));
#554=CARTESIAN_POINT('',(-0.0537075738411903,-0.00682767160080255,-0.000874125890014843));
#555=CARTESIAN_POINT('',(0.0732924261588097,-0.00682767160080255,-0.000874125890014843));
#556=CARTESIAN_POINT('',(0.0732924261588097,0.,0.));
#557=CARTESIAN_POINT('',(0.0732924261588097,-0.00682767160080255,0.00087412589001483));
#558=CARTESIAN_POINT('',(-0.0537075738411903,-0.00682767160080255,0.00087412589001483));
#559=CARTESIAN_POINT('',(0.00979242615880967,0.,0.));
#560=CARTESIAN_POINT('',(-0.0537075738411903,-0.00265682057354275,0.00635));
#561=CARTESIAN_POINT('',(-0.0537075738411903,-0.00265682057354275,0.00635));
#562=CARTESIAN_POINT('',(0.0732924261588097,-0.00265682057354275,0.00635));
#563=CARTESIAN_POINT('',(-0.0537075738411903,0.,0.));
#564=CARTESIAN_POINT('',(-0.0537075738411903,-0.00417085102725981,0.00547587410998515));
#565=CARTESIAN_POINT('',(-0.0537075738411903,-0.00417085102725981,0.00547587410998515));
#566=CARTESIAN_POINT('',(0.0732924261588097,-0.00417085102725981,0.00547587410998515));
#567=CARTESIAN_POINT('',(0.0732924261588097,0.,0.));
#568=CARTESIAN_POINT('',(-0.0559681738411903,-0.003175,0.));
#569=CARTESIAN_POINT('',(-0.0559681738411903,0.,0.));
#570=CARTESIAN_POINT('',(-0.0559681738411903,0.,0.00635));
#571=CARTESIAN_POINT('',(0.00979242615880967,0.,0.));
#572=CARTESIAN_POINT('',(-0.0546981738411903,0.,0.));
#573=CARTESIAN_POINT('',(-0.0546981738411903,0.,0.00635));
#574=CARTESIAN_POINT('',(-0.0546981738411903,-0.0061468,0.));
#575=CARTESIAN_POINT('',(-0.0546981738411903,0.,0.));
#576=CARTESIAN_POINT('',(-0.0546981738411903,0.,0.0059436));
#577=CARTESIAN_POINT('',(0.00979242615880967,0.,0.));
#578=CARTESIAN_POINT('',(-0.0537075738411903,0.,0.));
#579=CARTESIAN_POINT('',(-0.0537075738411903,0.,0.0059436));
#580=CARTESIAN_POINT('',(-0.0537075738411903,-0.0064135,0.));
#581=CARTESIAN_POINT('',(-0.0537075738411903,-5.63785129692462E-18,0.00635));
#582=CARTESIAN_POINT('',(-0.0537075738411903,0.00549926131403118,0.003175));
#583=CARTESIAN_POINT('',(-0.0537075738411903,0.00549926131403119,-0.003175));
#584=CARTESIAN_POINT('',(-0.0537075738411903,5.63785129692462E-18,-0.00635));
#585=CARTESIAN_POINT('',(-0.0537075738411903,-0.00549926131403118,-0.003175));
#586=CARTESIAN_POINT('',(-0.0537075738411903,-0.00549926131403119,0.003175));
#587=CARTESIAN_POINT('',(0.0732924261588097,-0.0064135,0.));
#588=CARTESIAN_POINT('',(0.0732924261588097,-5.63785129692462E-18,0.00635));
#589=CARTESIAN_POINT('',(0.0732924261588097,-0.00549926131403119,0.003175));
#590=CARTESIAN_POINT('',(0.0732924261588097,-0.00549926131403118,-0.003175));
#591=CARTESIAN_POINT('',(0.0732924261588097,5.63785129692462E-18,-0.00635));
#592=CARTESIAN_POINT('',(0.0732924261588097,0.00549926131403119,-0.003175));
#593=CARTESIAN_POINT('',(0.0732924261588097,0.00549926131403118,0.003175));
#594=CARTESIAN_POINT('',(0.0732924261588097,0.,0.));
#595=CARTESIAN_POINT('',(0.0732924261588097,0.,0.0059436));
#596=CARTESIAN_POINT('',(0.00979242615880967,0.,0.));
#597=CARTESIAN_POINT('',(0.0742830261588097,0.,0.));
#598=CARTESIAN_POINT('',(0.0742830261588097,0.,0.0059436));
#599=CARTESIAN_POINT('',(0.0742830261588097,-0.0061468,0.));
#600=CARTESIAN_POINT('',(0.0742830261588097,0.,0.));
#601=CARTESIAN_POINT('',(0.0742830261588097,0.,0.00635));
#602=CARTESIAN_POINT('',(0.00979242615880967,0.,0.));
#603=CARTESIAN_POINT('',(0.0755530261588097,0.,0.));
#604=CARTESIAN_POINT('',(0.0755530261588097,0.,0.00635));
#605=CARTESIAN_POINT('',(0.0755530261588097,-0.003175,0.));
#606=CARTESIAN_POINT('',(-0.0537075738411903,-0.00549926131403119,0.003175));
#607=CARTESIAN_POINT('',(-0.0537075738411903,-0.00549926131403118,-0.003175));
#608=CARTESIAN_POINT('',(-0.0537075738411903,5.63785129692462E-18,-0.00635));
#609=CARTESIAN_POINT('',(-0.0537075738411903,0.00549926131403119,-0.003175));
#610=CARTESIAN_POINT('',(-0.0537075738411903,0.00549926131403118,0.003175));
#611=CARTESIAN_POINT('',(-0.0537075738411903,-5.63785129692462E-18,0.00635));
#612=MECHANICAL_DESIGN_GEOMETRIC_PRESENTATION_REPRESENTATION('',(#349),
#613);
#613=(
GEOMETRIC_REPRESENTATION_CONTEXT(3)
GLOBAL_UNCERTAINTY_ASSIGNED_CONTEXT((#614))
GLOBAL_UNIT_ASSIGNED_CONTEXT((#617,#616,#615))
REPRESENTATION_CONTEXT('Shaft','TOP_LEVEL_ASSEMBLY_PART')
);
#614=UNCERTAINTY_MEASURE_WITH_UNIT(LENGTH_MEASURE(1.E-8),#617,
'DISTANCE_ACCURACY_VALUE','Maximum Tolerance applied to model');
#615=(
NAMED_UNIT(*)
SI_UNIT($,.STERADIAN.)
SOLID_ANGLE_UNIT()
);
#616=(
NAMED_UNIT(*)
PLANE_ANGLE_UNIT()
SI_UNIT($,.RADIAN.)
);
#617=(
LENGTH_UNIT()
NAMED_UNIT(*)
SI_UNIT($,.METRE.)
);
#618=PRODUCT_DEFINITION_SHAPE('','',#619);
#619=PRODUCT_DEFINITION('','',#621,#620);
#620=PRODUCT_DEFINITION_CONTEXT('',#627,'design');
#621=PRODUCT_DEFINITION_FORMATION_WITH_SPECIFIED_SOURCE('','',#623,
 .NOT_KNOWN.);
#622=PRODUCT_RELATED_PRODUCT_CATEGORY('','',(#623));
#623=PRODUCT('Shaft','Shaft','Shaft',(#625));
#624=PRODUCT_CATEGORY('','');
#625=PRODUCT_CONTEXT('',#627,'mechanical');
#626=APPLICATION_PROTOCOL_DEFINITION('international standard',
'ap242_managed_model_based_3d_engineering',2020,#627);
#627=APPLICATION_CONTEXT('managed model based 3d engineering');
ENDSEC;
END-ISO-10303-21;
