ISO-10303-21;
HEADER;
FILE_DESCRIPTION (( 'STEP AP203' ),
    '1' );
FILE_NAME ('am-3257 DART 12 Lead Screw.STEP',
    '2016-02-01T14:38:48',
    ( '' ),
    ( '' ),
    'SwSTEP 2.0',
    'SolidWorks 2014',
    '' );
FILE_SCHEMA (( 'CONFIG_CONTROL_DESIGN' ));
ENDSEC;

DATA;
#1 = CC_DESIGN_DATE_AND_TIME_ASSIGNMENT ( #155, #385, ( #188 ) ) ;
#2 = EDGE_CURVE ( 'NONE', #551, #505, #412, .T. ) ;
#3 = AXIS2_PLACEMENT_3D ( 'NONE', #12, #717, #697 ) ;
#4 = DIRECTION ( 'NONE',  ( -1.000000000000000000, 0.0000000000000000000, 0.0000000000000000000 ) ) ;
#5 = AXIS2_PLACEMENT_3D ( 'NONE', #601, #609, #268 ) ;
#6 = DIRECTION ( 'NONE',  ( 1.000000000000000000, 0.0000000000000000000, 0.0000000000000000000 ) ) ;
#7 =( GEOMETRIC_REPRESENTATION_CONTEXT ( 3 ) GLOBAL_UNCERTAINTY_ASSIGNED_CONTEXT ( ( #780 ) ) GLOBAL_UNIT_ASSIGNED_CONTEXT ( ( #389, #672, #255 ) ) REPRESENTATION_CONTEXT ( 'NONE', 'WORKASPACE' ) );
#8 = CARTESIAN_POINT ( 'NONE',  ( 14.82243943812721700, 0.1523105848368965200, -0.03492606469409466300 ) ) ;
#9 = DIRECTION ( 'NONE',  ( 1.000000000000000000, 0.0000000000000000000, 0.0000000000000000000 ) ) ;
#10 = AXIS2_PLACEMENT_3D ( 'NONE', #105, #91, #62 ) ;
#11 = DIRECTION ( 'NONE',  ( 1.000000000000000000, 0.0000000000000000000, 0.0000000000000000000 ) ) ;
#12 = CARTESIAN_POINT ( 'NONE',  ( 0.3749999999999999400, 0.0000000000000000000, 0.0000000000000000000 ) ) ;
#13 = CARTESIAN_POINT ( 'NONE',  ( 14.83719003971712900, 0.1550195042664968000, 0.02017012322466466000 ) ) ;
#14 = EDGE_CURVE ( 'NONE', #476, #441, #634, .T. ) ;
#15 = CC_DESIGN_APPROVAL ( #771, ( #809 ) ) ;
#16 = AXIS2_PLACEMENT_3D ( 'NONE', #59, #774, #338 ) ;
#17 = ADVANCED_FACE ( 'NONE', ( #341 ), #739, .T. ) ;
#18 = CARTESIAN_POINT ( 'NONE',  ( 13.12500000000000000, 0.0000000000000000000, 0.0000000000000000000 ) ) ;
#19 = DIRECTION ( 'NONE',  ( -1.000000000000000000, -0.0000000000000000000, -0.0000000000000000000 ) ) ;
#20 = EDGE_CURVE ( 'NONE', #461, #331, #352, .T. ) ;
#21 = EDGE_CURVE ( 'NONE', #505, #551, #353, .T. ) ;
#22 = EDGE_CURVE ( 'NONE', #367, #631, #336, .T. ) ;
#23 = AXIS2_PLACEMENT_3D ( 'NONE', #847, #751, #802 ) ;
#24 = DIRECTION ( 'NONE',  ( 1.000000000000000000, -0.0000000000000000000, -0.0000000000000000000 ) ) ;
#25 = CARTESIAN_POINT ( 'NONE',  ( 14.37224999999921600, -2.104861686023880500E-017, 0.1562499999982635800 ) ) ;
#26 = DIRECTION ( 'NONE',  ( -1.000000000000000000, 0.0000000000000000000, 0.0000000000000000000 ) ) ;
#27 = DIRECTION ( 'NONE',  ( 0.0000000000000000000, 0.0000000000000000000, -1.000000000000000000 ) ) ;
#28 = CARTESIAN_POINT ( 'NONE',  ( 15.08224999999921100, 0.0000000000000000000, -0.06250000000000000000 ) ) ;
#29 = AXIS2_PLACEMENT_3D ( 'NONE', #682, #642, #667 ) ;
#30 = ADVANCED_FACE ( 'NONE', ( #351, #354 ), #830, .T. ) ;
#31 = DIRECTION ( 'NONE',  ( 0.7071067811865205900, 0.0000000000000000000, -0.7071067811865743300 ) ) ;
#32 = CARTESIAN_POINT ( 'NONE',  ( 15.08224999999921100, 0.0000000000000000000, 0.0000000000000000000 ) ) ;
#33 = MANIFOLD_SOLID_BREP ( 'Chamfer3', #636 ) ;
#34 = DIRECTION ( 'NONE',  ( 0.0000000000000000000, 0.0000000000000000000, -1.000000000000000000 ) ) ;
#35 = CARTESIAN_POINT ( 'NONE',  ( 14.34099999999999900, 0.0000000000000000000, 0.0000000000000000000 ) ) ;
#36 = EDGE_CURVE ( 'NONE', #559, #405, #350, .T. ) ;
#37 = DIRECTION ( 'NONE',  ( 0.0000000000000000000, -1.000000000000000000, 0.0000000000000000000 ) ) ;
#38 = AXIS2_PLACEMENT_3D ( 'NONE', #99, #11, #793 ) ;
#39 = PERSON_AND_ORGANIZATION_ROLE ( 'creator' ) ;
#40 = EDGE_CURVE ( 'NONE', #554, #405, #744, .T. ) ;
#41 = EDGE_CURVE ( 'NONE', #339, #424, #355, .T. ) ;
#42 = CARTESIAN_POINT ( 'NONE',  ( 14.82243977015171400, 0.1523110375146528000, 0.03492388510315883700 ) ) ;
#43 = AXIS2_PLACEMENT_3D ( 'NONE', #831, #731, #122 ) ;
#44 = PRODUCT_RELATED_PRODUCT_CATEGORY ( 'detail', '', ( #260 ) ) ;
#45 = CARTESIAN_POINT ( 'NONE',  ( 15.09224999999921700, 0.0000000000000000000, 0.1562500000000000000 ) ) ;
#46 = AXIS2_PLACEMENT_3D ( 'NONE', #656, #387, #556 ) ;
#47 = CARTESIAN_POINT ( 'NONE',  ( 0.1350000000000010900, 0.0000000000000000000, -0.1562500000000000000 ) ) ;
#48 = CARTESIAN_POINT ( 'NONE',  ( 15.08224999999921700, 1.913510623667739500E-017, -0.1562500000000000000 ) ) ;
#49 = AXIS2_PLACEMENT_3D ( 'NONE', #738, #781, #839 ) ;
#50 = ADVANCED_FACE ( 'NONE', ( #357 ), #533, .F. ) ;
#51 = CARTESIAN_POINT ( 'NONE',  ( 14.40224999999921500, 0.1510432471181678600, 0.04000000000000099300 ) ) ;
#52 = CARTESIAN_POINT ( 'NONE',  ( 0.1350000000000010900, 0.0000000000000000000, 0.0000000000000000000 ) ) ;
#53 = CARTESIAN_POINT ( 'NONE',  ( 15.08224999999921100, 0.0000000000000000000, -0.06250000000000000000 ) ) ;
#54 = ADVANCED_FACE ( 'NONE', ( #380 ), #383, .T. ) ;
#55 = DIRECTION ( 'NONE',  ( 0.0000000000000000000, 0.0000000000000000000, -1.000000000000000000 ) ) ;
#56 = AXIS2_PLACEMENT_3D ( 'NONE', #695, #532, #425 ) ;
#57 = DIRECTION ( 'NONE',  ( 1.000000000000000000, -0.0000000000000000000, -0.0000000000000000000 ) ) ;
#58 = ADVANCED_FACE ( 'NONE', ( #384 ), #528, .T. ) ;
#59 = CARTESIAN_POINT ( 'NONE',  ( 15.09224999999921700, 0.0000000000000000000, 0.0000000000000000000 ) ) ;
#60 = CARTESIAN_POINT ( 'NONE',  ( 14.34224999999921700, 0.0000000000000000000, 0.0000000000000000000 ) ) ;
#61 = CARTESIAN_POINT ( 'NONE',  ( 14.40224999999921500, 0.2088799212598420100, 9.902948977032954400E-016 ) ) ;
#62 = DIRECTION ( 'NONE',  ( 0.0000000000000000000, 0.0000000000000000000, 1.000000000000000000 ) ) ;
#63 = CARTESIAN_POINT ( 'NONE',  ( 14.34224999999921700, 0.0000000000000000000, 0.0000000000000000000 ) ) ;
#64 = EDGE_CURVE ( 'NONE', #762, #622, #538, .T. ) ;
#65 = AXIS2_PLACEMENT_3D ( 'NONE', #611, #691, #55 ) ;
#66 = DIRECTION ( 'NONE',  ( -1.000000000000000000, 0.0000000000000000000, 0.0000000000000000000 ) ) ;
#67 = CARTESIAN_POINT ( 'NONE',  ( 0.3750000000000002200, 0.0000000000000000000, 0.0000000000000000000 ) ) ;
#68 = CARTESIAN_POINT ( 'NONE',  ( 14.34224999999921700, 0.0000000000000000000, 0.0000000000000000000 ) ) ;
#69 = AXIS2_PLACEMENT_3D ( 'NONE', #503, #640, #411 ) ;
#70 = AXIS2_PLACEMENT_3D ( 'NONE', #63, #805, #822 ) ;
#71 = CARTESIAN_POINT ( 'NONE',  ( 0.3750000000000002200, 3.061616997868395300E-017, 0.2500000000000010000 ) ) ;
#72 = PERSON_AND_ORGANIZATION_ROLE ( 'design_supplier' ) ;
#73 = CARTESIAN_POINT ( 'NONE',  ( 0.3750000000000001100, 0.0000000000000000000, -0.1562500000000000000 ) ) ;
#74 = APPROVAL_STATUS ( 'not_yet_approved' ) ;
#75 = EDGE_CURVE ( 'NONE', #644, #339, #657, .T. ) ;
#76 = ADVANCED_FACE ( 'NONE', ( #531 ), #520, .T. ) ;
#77 = DIRECTION ( 'NONE',  ( 1.000000000000000000, 0.0000000000000000000, -0.0000000000000000000 ) ) ;
#78 = AXIS2_PLACEMENT_3D ( 'NONE', #422, #685, #542 ) ;
#79 = CARTESIAN_POINT ( 'NONE',  ( 14.39087269839046200, 0.1513851622590332800, -0.03875973857518524900 ) ) ;
#80 = AXIS2_PLACEMENT_3D ( 'NONE', #602, #304, #120 ) ;
#81 = EDGE_CURVE ( 'NONE', #624, #764, #381, .T. ) ;
#82 = DIRECTION ( 'NONE',  ( 0.0000000000000000000, 0.0000000000000000000, -1.000000000000000000 ) ) ;
#83 = EDGE_CURVE ( 'NONE', #631, #367, #536, .T. ) ;
#84 = PLANE ( 'NONE',  #130 ) ;
#85 = CARTESIAN_POINT ( 'NONE',  ( 15.08224999999921100, 0.0000000000000000000, 0.0000000000000000000 ) ) ;
#86 = CARTESIAN_POINT ( 'NONE',  ( 14.34099999999999900, 0.0000000000000000000, -0.1874999999997182000 ) ) ;
#87 = MECHANICAL_CONTEXT ( 'NONE', #585, 'mechanical' ) ;
#88 = APPROVAL_ROLE ( '' ) ;
#89 = DIRECTION ( 'NONE',  ( -0.7071067811865764400, 8.659560562354579100E-017, -0.7071067811865184800 ) ) ;
#90 = AXIS2_PLACEMENT_3D ( 'NONE', #808, #113, #651 ) ;
#91 = DIRECTION ( 'NONE',  ( -1.000000000000000000, 0.0000000000000000000, 0.0000000000000000000 ) ) ;
#92 = PLANE ( 'NONE',  #800 ) ;
#93 = AXIS2_PLACEMENT_3D ( 'NONE', #828, #650, #512 ) ;
#94 = EDGE_CURVE ( 'NONE', #424, #461, #541, .T. ) ;
#95 = DIRECTION ( 'NONE',  ( -1.000000000000000000, -0.0000000000000000000, -0.0000000000000000000 ) ) ;
#96 = EDGE_CURVE ( 'NONE', #461, #414, #522, .T. ) ;
#97 = AXIS2_PLACEMENT_3D ( 'NONE', #540, #66, #132 ) ;
#98 = CARTESIAN_POINT ( 'NONE',  ( 14.80224999999921600, 0.2088799212598420100, 0.04000000000000099300 ) ) ;
#99 = CARTESIAN_POINT ( 'NONE',  ( 13.12500000000000000, 0.0000000000000000000, 0.0000000000000000000 ) ) ;
#100 = ADVANCED_FACE ( 'NONE', ( #535 ), #318, .T. ) ;
#101 = CARTESIAN_POINT ( 'NONE',  ( 14.37224999999921600, 0.1539937092853386200, -0.02645751311064565100 ) ) ;
#102 = DIRECTION ( 'NONE',  ( 1.000000000000000000, 0.0000000000000000000, 0.0000000000000000000 ) ) ;
#103 = CARTESIAN_POINT ( 'NONE',  ( 14.80224999999921600, 0.1510432471181683800, -0.03999999999999900900 ) ) ;
#104 = AXIS2_PLACEMENT_3D ( 'NONE', #416, #498, #140 ) ;
#105 = CARTESIAN_POINT ( 'NONE',  ( 0.1250000000000001100, 0.0000000000000000000, 0.0000000000000000000 ) ) ;
#106 = AXIS2_PLACEMENT_3D ( 'NONE', #108, #471, #852 ) ;
#107 = ADVANCED_FACE ( 'NONE', ( #525, #316 ), #719, .T. ) ;
#108 = CARTESIAN_POINT ( 'NONE',  ( 15.09224999999921700, 0.0000000000000000000, 0.0000000000000000000 ) ) ;
#109 = CARTESIAN_POINT ( 'NONE',  ( 0.1350000000000010900, 1.913510623667739500E-017, 0.1562500000000000000 ) ) ;
#110 = DIRECTION ( 'NONE',  ( 1.000000000000000000, 0.0000000000000000000, 0.0000000000000000000 ) ) ;
#111 = DIRECTION ( 'NONE',  ( 0.0000000000000000000, 0.0000000000000000000, -1.000000000000000000 ) ) ;
#112 = DIMENSIONAL_EXPONENTS ( 1.000000000000000000, 0.0000000000000000000, 0.0000000000000000000, 0.0000000000000000000, 0.0000000000000000000, 0.0000000000000000000, 0.0000000000000000000 ) ;
#113 = DIRECTION ( 'NONE',  ( 0.0000000000000000000, -1.000000000000000000, 0.0000000000000000000 ) ) ;
#114 = AXIS2_PLACEMENT_3D ( 'NONE', #812, #475, #659 ) ;
#115 = CARTESIAN_POINT ( 'NONE',  ( 14.34224999999921700, 0.0000000000000000000, 0.0000000000000000000 ) ) ;
#116 = EDGE_CURVE ( 'NONE', #506, #632, #138, .T. ) ;
#117 = APPROVAL ( #625, 'UNSPECIFIED' ) ;
#118 = CARTESIAN_POINT ( 'NONE',  ( 15.09224999999921700, 0.0000000000000000000, 0.1462500000000017400 ) ) ;
#119 = EDGE_CURVE ( 'NONE', #482, #455, #388, .T. ) ;
#120 = DIRECTION ( 'NONE',  ( 0.0000000000000000000, 0.0000000000000000000, -1.000000000000000000 ) ) ;
#121 = AXIS2_PLACEMENT_3D ( 'NONE', #741, #205, #630 ) ;
#122 = DIRECTION ( 'NONE',  ( 0.0000000000000000000, 0.0000000000000000000, 1.000000000000000000 ) ) ;
#123 = CARTESIAN_POINT ( 'NONE',  ( 14.39652174999799600, 0.1510432471181683800, -0.03999999999999901600 ) ) ;
#124 = DIRECTION ( 'NONE',  ( 1.000000000000000000, -0.0000000000000000000, -0.0000000000000000000 ) ) ;
#125 = DATE_TIME_ROLE ( 'creation_date' ) ;
#126 = EDGE_CURVE ( 'NONE', #559, #367, #315, .T. ) ;
#127 = AXIS2_PLACEMENT_3D ( 'NONE', #67, #110, #544 ) ;
#128 = CARTESIAN_POINT ( 'NONE',  ( 14.36703889067186100, 0.1603367989310624200, -0.01959233150627143600 ) ) ;
#129 = AXIS2_PLACEMENT_3D ( 'NONE', #18, #133, #368 ) ;
#130 = AXIS2_PLACEMENT_3D ( 'NONE', #382, #297, #77 ) ;
#131 = DIRECTION ( 'NONE',  ( -0.0000000000000000000, -1.000000000000000000, -0.0000000000000000000 ) ) ;
#132 = DIRECTION ( 'NONE',  ( 0.0000000000000000000, 0.0000000000000000000, 1.000000000000000000 ) ) ;
#133 = DIRECTION ( 'NONE',  ( 1.000000000000000000, 0.0000000000000000000, 0.0000000000000000000 ) ) ;
#134 = ADVANCED_FACE ( 'NONE', ( #311 ), #305, .T. ) ;
#135 = APPLICATION_PROTOCOL_DEFINITION ( 'international standard', 'config_control_design', 1994, #844 ) ;
#136 = EDGE_CURVE ( 'NONE', #334, #618, #307, .T. ) ;
#137 = CARTESIAN_POINT ( 'NONE',  ( 14.34224999999921700, 0.0000000000000000000, -0.06250000000000000000 ) ) ;
#138 = B_SPLINE_CURVE_WITH_KNOTS ( 'NONE', 3,
 ( #527, #690, #693, #8, #696, #573, #708, #705, #709, #711, #700, #13, #306, #821, #42, #721, #704, #712 ),
 .UNSPECIFIED., .F., .F.,
 ( 4, 2, 2, 2, 2, 2, 2, 2, 4 ),
 ( 0.0000000000000000000, 0.0003985983282757878000, 0.0007971966565515756000, 0.001195794984827363300, 0.001594393313103151200, 0.001992991641378938600, 0.002391589969654726300, 0.002790188297930514300, 0.003188786626206301500 ),
 .UNSPECIFIED. ) ;
#139 = EDGE_CURVE ( 'NONE', #612, #559, #319, .T. ) ;
#140 = DIRECTION ( 'NONE',  ( 0.0000000000000000000, 0.0000000000000000000, -1.000000000000000000 ) ) ;
#141 = ADVANCED_FACE ( 'NONE', ( #314 ), #300, .T. ) ;
#142 = EDGE_CURVE ( 'NONE', #331, #485, #312, .T. ) ;
#143 = AXIS2_PLACEMENT_3D ( 'NONE', #701, #861, #699 ) ;
#144 = DIRECTION ( 'NONE',  ( 0.0000000000000000000, 0.0000000000000000000, -1.000000000000000000 ) ) ;
#145 = APPROVAL_DATE_TIME ( #146, #117 ) ;
#146 = DATE_AND_TIME ( #147, #148 ) ;
#147 = CALENDAR_DATE ( 2016, 1, 2 ) ;
#148 = LOCAL_TIME ( 9, 38, 48.00000000000000000, #150 ) ;
#149 = EDGE_CURVE ( 'NONE', #504, #594, #675, .T. ) ;
#150 = COORDINATED_UNIVERSAL_TIME_OFFSET ( 5, 0, .BEHIND. ) ;
#151 = APPROVAL_PERSON_ORGANIZATION ( #152, #117, #641 ) ;
#152 = PERSON_AND_ORGANIZATION ( #160, #201 ) ;
#153 = DIRECTION ( 'NONE',  ( -0.7071067811865764400, 0.0000000000000000000, 0.7071067811865184800 ) ) ;
#154 = AXIS2_PLACEMENT_3D ( 'NONE', #815, #4, #343 ) ;
#155 = DATE_AND_TIME ( #156, #157 ) ;
#156 = CALENDAR_DATE ( 2016, 1, 2 ) ;
#157 = LOCAL_TIME ( 9, 38, 48.00000000000000000, #158 ) ;
#158 = COORDINATED_UNIVERSAL_TIME_OFFSET ( 5, 0, .BEHIND. ) ;
#159 = PERSON_AND_ORGANIZATION ( #160, #201 ) ;
#160 = PERSON ( 'UNSPECIFIED', 'UNSPECIFIED', 'UNSPECIFIED', ('UNSPECIFIED'), ('UNSPECIFIED'), ('UNSPECIFIED') ) ;
#161 = DIRECTION ( 'NONE',  ( 0.0000000000000000000, 0.0000000000000000000, -1.000000000000000000 ) ) ;
#162 = PERSON_AND_ORGANIZATION ( #160, #201 ) ;
#163 = PERSON_AND_ORGANIZATION ( #160, #201 ) ;
#164 = APPROVAL_DATE_TIME ( #165, #643 ) ;
#165 = DATE_AND_TIME ( #166, #167 ) ;
#166 = CALENDAR_DATE ( 2016, 1, 2 ) ;
#167 = LOCAL_TIME ( 9, 38, 48.00000000000000000, #168 ) ;
#168 = COORDINATED_UNIVERSAL_TIME_OFFSET ( 5, 0, .BEHIND. ) ;
#169 = APPROVAL_PERSON_ORGANIZATION ( #171, #643, #88 ) ;
#170 = EDGE_CURVE ( 'NONE', #622, #762, #302, .T. ) ;
#171 = PERSON_AND_ORGANIZATION ( #160, #201 ) ;
#172 = DATE_AND_TIME ( #173, #174 ) ;
#173 = CALENDAR_DATE ( 2016, 1, 2 ) ;
#174 = LOCAL_TIME ( 9, 38, 48.00000000000000000, #176 ) ;
#175 = AXIS2_PLACEMENT_3D ( 'NONE', #835, #801, #836 ) ;
#176 = COORDINATED_UNIVERSAL_TIME_OFFSET ( 5, 0, .BEHIND. ) ;
#177 = PERSON_AND_ORGANIZATION ( #160, #201 ) ;
#178 = APPROVAL_DATE_TIME ( #179, #771 ) ;
#179 = DATE_AND_TIME ( #180, #181 ) ;
#180 = CALENDAR_DATE ( 2016, 1, 2 ) ;
#181 = LOCAL_TIME ( 9, 38, 48.00000000000000000, #182 ) ;
#182 = COORDINATED_UNIVERSAL_TIME_OFFSET ( 5, 0, .BEHIND. ) ;
#183 = APPROVAL_PERSON_ORGANIZATION ( #184, #771, #671 ) ;
#184 = PERSON_AND_ORGANIZATION ( #160, #201 ) ;
#185 = PERSON_AND_ORGANIZATION ( #160, #201 ) ;
#186 = EDGE_CURVE ( 'NONE', #405, #559, #298, .T. ) ;
#187 = CARTESIAN_POINT ( 'NONE',  ( 15.09224999999921700, 1.913510623667739500E-017, -0.1562500000000000000 ) ) ;
#188 = SECURITY_CLASSIFICATION ( '', '', #627 ) ;
#189 = LENGTH_MEASURE_WITH_UNIT ( LENGTH_MEASURE( 0.02539999999999999900 ), #365 );
#190 = EDGE_CURVE ( 'NONE', #331, #461, #308, .T. ) ;
#191 = AXIS2_PLACEMENT_3D ( 'NONE', #837, #26, #785 ) ;
#192 = CARTESIAN_POINT ( 'NONE',  ( 14.38060639275008900, 0.1525007216214133200, -0.03410739790073070300 ) ) ;
#193 = CC_DESIGN_SECURITY_CLASSIFICATION ( #188, ( #798 ) ) ;
#194 = SHAPE_DEFINITION_REPRESENTATION ( #452, #513 ) ;
#195 = FACE_OUTER_BOUND ( 'NONE', #435, .T. ) ;
#196 = VECTOR ( 'NONE', #124, 39.37007874015748100 ) ;
#197 = CARTESIAN_POINT ( 'NONE',  ( 0.1250000000000001100, 1.791045943752998600E-017, 0.1462499999999995700 ) ) ;
#198 = CYLINDRICAL_SURFACE ( 'NONE', #683, 0.1562500000000000000 ) ;
#199 = CIRCLE ( 'NONE', #5, 0.1562499999982635800 ) ;
#200 = ADVANCED_FACE ( 'NONE', ( #299 ), #290, .T. ) ;
#201 = ORGANIZATION ( 'UNSPECIFIED', 'UNSPECIFIED', '' ) ;
#202 = LINE ( 'NONE', #720, #196 ) ;
#203 = CONICAL_SURFACE ( 'NONE', #716, 0.1874999999997182000, 0.7853981634332516400 ) ;
#204 = FACE_OUTER_BOUND ( 'NONE', #344, .T. ) ;
#205 = DIRECTION ( 'NONE',  ( 1.000000000000000000, 0.0000000000000000000, 0.0000000000000000000 ) ) ;
#206 = LINE ( 'NONE', #676, #207 ) ;
#207 = VECTOR ( 'NONE', #131, 39.37007874015748100 ) ;
#208 = FACE_OUTER_BOUND ( 'NONE', #766, .T. ) ;
#209 = VECTOR ( 'NONE', #669, 39.37007874015748100 ) ;
#210 = CYLINDRICAL_SURFACE ( 'NONE', #46, 0.1874999999999999700 ) ;
#211 = LINE ( 'NONE', #98, #209 ) ;
#212 = CIRCLE ( 'NONE', #129, 0.1874999999999999700 ) ;
#213 = CARTESIAN_POINT ( 'NONE',  ( 14.36225153505235100, 0.1662480956097580600, 0.005389581235515711200 ) ) ;
#214 = VECTOR ( 'NONE', #792, 39.37007874015748100 ) ;
#215 = EDGE_CURVE ( 'NONE', #482, #364, #291, .T. ) ;
#216 = CYLINDRICAL_SURFACE ( 'NONE', #549, 0.04000000000000000100 ) ;
#217 = CIRCLE ( 'NONE', #736, 0.06250000000000000000 ) ;
#218 = EDGE_CURVE ( 'NONE', #492, #622, #294, .T. ) ;
#219 = LINE ( 'NONE', #655, #214 ) ;
#220 = FACE_OUTER_BOUND ( 'NONE', #479, .T. ) ;
#221 = ADVANCED_FACE ( 'NONE', ( #295 ), #284, .T. ) ;
#222 = VECTOR ( 'NONE', #633, 39.37007874015748100 ) ;
#223 = FACE_OUTER_BOUND ( 'NONE', #598, .T. ) ;
#224 = VECTOR ( 'NONE', #500, 39.37007874015748100 ) ;
#225 = LINE ( 'NONE', #529, #222 ) ;
#226 = VECTOR ( 'NONE', #703, 39.37007874015748900 ) ;
#227 = FACE_OUTER_BOUND ( 'NONE', #779, .T. ) ;
#228 = CARTESIAN_POINT ( 'NONE',  ( 0.3749999999999999400, 3.061616997868395300E-017, 0.2500000000000010000 ) ) ;
#229 = LINE ( 'NONE', #842, #226 ) ;
#230 = LINE ( 'NONE', #732, #232 ) ;
#231 = DIRECTION ( 'NONE',  ( 1.000000000000000000, 0.0000000000000000000, 0.0000000000000000000 ) ) ;
#232 = VECTOR ( 'NONE', #648, 39.37007874015748100 ) ;
#233 = CONICAL_SURFACE ( 'NONE', #93, 0.06250000000000000000, 0.7853981633974863600 ) ;
#234 = DIRECTION ( 'NONE',  ( 1.000000000000000000, 0.0000000000000000000, 0.0000000000000000000 ) ) ;
#235 = CIRCLE ( 'NONE', #534, 0.1462500000000017400 ) ;
#236 = FACE_OUTER_BOUND ( 'NONE', #494, .T. ) ;
#237 = CIRCLE ( 'NONE', #660, 0.1462499999999995700 ) ;
#238 = FACE_OUTER_BOUND ( 'NONE', #456, .T. ) ;
#239 = FACE_OUTER_BOUND ( 'NONE', #508, .T. ) ;
#240 = LINE ( 'NONE', #740, #224 ) ;
#241 = CYLINDRICAL_SURFACE ( 'NONE', #104, 0.06250000000000000000 ) ;
#242 = CIRCLE ( 'NONE', #78, 0.1562500000000000000 ) ;
#243 = CIRCLE ( 'NONE', #56, 0.1562499999982635800 ) ;
#244 = FACE_OUTER_BOUND ( 'NONE', #580, .T. ) ;
#245 = VECTOR ( 'NONE', #859, 39.37007874015748100 ) ;
#246 = CIRCLE ( 'NONE', #90, 0.04000000000000000100 ) ;
#247 = LINE ( 'NONE', #816, #245 ) ;
#248 = CIRCLE ( 'NONE', #69, 0.2500000000000010000 ) ;
#249 = ADVANCED_FACE ( 'NONE', ( #292 ), #289, .F. ) ;
#250 = CIRCLE ( 'NONE', #114, 0.1562500000000000000 ) ;
#251 = CONICAL_SURFACE ( 'NONE', #49, 0.1462499999999995700, 0.7853981633974209700 ) ;
#252 = EDGE_CURVE ( 'NONE', #576, #424, #286, .T. ) ;
#253 = CIRCLE ( 'NONE', #776, 0.06250000000000000000 ) ;
#254 = LINE ( 'NONE', #228, #257 ) ;
#255 =( NAMED_UNIT ( * ) SI_UNIT ( $, .STERADIAN. ) SOLID_ANGLE_UNIT ( ) );
#256 = CIRCLE ( 'NONE', #607, 0.06250000000000000000 ) ;
#257 = VECTOR ( 'NONE', #231, 39.37007874015748100 ) ;
#258 = FACE_BOUND ( 'NONE', #439, .T. ) ;
#259 = VECTOR ( 'NONE', #449, 39.37007874015748100 ) ;
#260 = PRODUCT ( 'am-3257 DART 12 Lead Screw', 'am-3257 DART 12 Lead Screw', '', ( #87 ) ) ;
#261 = EDGE_CURVE ( 'NONE', #364, #576, #296, .T. ) ;
#262 = LINE ( 'NONE', #724, #259 ) ;
#263 = FACE_OUTER_BOUND ( 'NONE', #565, .T. ) ;
#264 = LINE ( 'NONE', #137, #274 ) ;
#265 = CC_DESIGN_PERSON_AND_ORGANIZATION_ASSIGNMENT ( #177, #39, ( #809 ) ) ;
#266 = VECTOR ( 'NONE', #810, 39.37007874015748100 ) ;
#267 = LINE ( 'NONE', #86, #266 ) ;
#268 = DIRECTION ( 'NONE',  ( 0.0000000000000000000, 0.0000000000000000000, -1.000000000000000000 ) ) ;
#269 = CYLINDRICAL_SURFACE ( 'NONE', #401, 0.06250000000000000000 ) ;
#270 = CIRCLE ( 'NONE', #10, 0.1462499999999995700 ) ;
#271 = CYLINDRICAL_SURFACE ( 'NONE', #175, 0.1562500000000000000 ) ;
#272 = FACE_OUTER_BOUND ( 'NONE', #620, .T. ) ;
#273 = FACE_OUTER_BOUND ( 'NONE', #477, .T. ) ;
#274 = VECTOR ( 'NONE', #57, 39.37007874015748100 ) ;
#275 = VECTOR ( 'NONE', #729, 39.37007874015748100 ) ;
#276 = LINE ( 'NONE', #824, #275 ) ;
#277 = FACE_OUTER_BOUND ( 'NONE', #408, .T. ) ;
#278 = VECTOR ( 'NONE', #9, 39.37007874015748100 ) ;
#279 = FACE_OUTER_BOUND ( 'NONE', #332, .T. ) ;
#280 = VECTOR ( 'NONE', #429, 39.37007874015748100 ) ;
#281 = CIRCLE ( 'NONE', #734, 0.1874999999999999700 ) ;
#282 = VECTOR ( 'NONE', #153, 39.37007874015748900 ) ;
#283 = LINE ( 'NONE', #752, #278 ) ;
#284 = CONICAL_SURFACE ( 'NONE', #65, 0.1874999999997182000, 0.7853981634332516400 ) ;
#285 = VECTOR ( 'NONE', #19, 39.37007874015748100 ) ;
#286 = LINE ( 'NONE', #45, #285 ) ;
#287 = EDGE_CURVE ( 'NONE', #455, #430, #288, .T. ) ;
#288 = LINE ( 'NONE', #187, #280 ) ;
#289 = CYLINDRICAL_SURFACE ( 'NONE', #723, 0.04000000000000000100 ) ;
#290 = CONICAL_SURFACE ( 'NONE', #375, 0.1462499999999995700, 0.7853981633974209700 ) ;
#291 = CIRCLE ( 'NONE', #572, 0.1462500000000017400 ) ;
#292 = FACE_OUTER_BOUND ( 'NONE', #562, .T. ) ;
#293 = VECTOR ( 'NONE', #31, 39.37007874015748900 ) ;
#294 = LINE ( 'NONE', #28, #293 ) ;
#295 = FACE_OUTER_BOUND ( 'NONE', #750, .T. ) ;
#296 = LINE ( 'NONE', #118, #282 ) ;
#297 = DIRECTION ( 'NONE',  ( 0.0000000000000000000, 0.0000000000000000000, 1.000000000000000000 ) ) ;
#298 = CIRCLE ( 'NONE', #790, 0.1562500000000000000 ) ;
#299 = FACE_OUTER_BOUND ( 'NONE', #507, .T. ) ;
#300 = CYLINDRICAL_SURFACE ( 'NONE', #825, 0.1562500000000000000 ) ;
#301 = CARTESIAN_POINT ( 'NONE',  ( 14.40224999999921500, 0.1510432471181683800, -0.03999999999999900900 ) ) ;
#302 = CIRCLE ( 'NONE', #555, 0.07250000000000639300 ) ;
#303 = VECTOR ( 'NONE', #846, 39.37007874015748100 ) ;
#304 = DIRECTION ( 'NONE',  ( 1.000000000000000000, 0.0000000000000000000, 0.0000000000000000000 ) ) ;
#305 = CONICAL_SURFACE ( 'NONE', #804, 0.1462500000000017400, 0.7853981633974073100 ) ;
#306 = CARTESIAN_POINT ( 'NONE',  ( 14.83424801187078200, 0.1543524999265960500, 0.02456748300284631800 ) ) ;
#307 = CIRCLE ( 'NONE', #469, 0.04000000000000000100 ) ;
#308 = CIRCLE ( 'NONE', #755, 0.1874999999999999700 ) ;
#309 = VECTOR ( 'NONE', #561, 39.37007874015748900 ) ;
#310 = AXIS2_PLACEMENT_3D ( 'NONE', #747, #24, #817 ) ;
#311 = FACE_OUTER_BOUND ( 'NONE', #510, .T. ) ;
#312 = LINE ( 'NONE', #795, #303 ) ;
#313 = VECTOR ( 'NONE', #523, 39.37007874015748100 ) ;
#314 = FACE_OUTER_BOUND ( 'NONE', #587, .T. ) ;
#315 = LINE ( 'NONE', #539, #313 ) ;
#316 = FACE_OUTER_BOUND ( 'NONE', #410, .T. ) ;
#317 = CARTESIAN_POINT ( 'NONE',  ( 14.80224999999921600, 0.1108799212598419900, 9.902948977032954400E-016 ) ) ;
#318 = CYLINDRICAL_SURFACE ( 'NONE', #3, 0.2500000000000010000 ) ;
#319 = LINE ( 'NONE', #197, #309 ) ;
#320 = VECTOR ( 'NONE', #89, 39.37007874015748900 ) ;
#321 = ORIENTED_EDGE ( 'NONE', *, *, #96, .F. ) ;
#322 = DIRECTION ( 'NONE',  ( 0.0000000000000000000, 0.0000000000000000000, -1.000000000000000000 ) ) ;
#323 = ORIENTED_EDGE ( 'NONE', *, *, #649, .T. ) ;
#324 = ORIENTED_EDGE ( 'NONE', *, *, #519, .T. ) ;
#325 = ORIENTED_EDGE ( 'NONE', *, *, #142, .F. ) ;
#326 = DIRECTION ( 'NONE',  ( 0.0000000000000000000, 0.0000000000000000000, -1.000000000000000000 ) ) ;
#327 = EDGE_CURVE ( 'NONE', #594, #506, #283, .T. ) ;
#328 = ORIENTED_EDGE ( 'NONE', *, *, #41, .T. ) ;
#329 = ORIENTED_EDGE ( 'NONE', *, *, #94, .T. ) ;
#330 = DIRECTION ( 'NONE',  ( 0.0000000000000000000, 0.0000000000000000000, -1.000000000000000000 ) ) ;
#331 = VERTEX_POINT ( 'NONE', #678 ) ;
#332 = EDGE_LOOP ( 'NONE', ( #421, #558, #324, #758 ) ) ;
#333 = ORIENTED_EDGE ( 'NONE', *, *, #119, .F. ) ;
#334 = VERTEX_POINT ( 'NONE', #856 ) ;
#335 = ORIENTED_EDGE ( 'NONE', *, *, #530, .T. ) ;
#336 = CIRCLE ( 'NONE', #154, 0.1562500000000000000 ) ;
#337 = EDGE_CURVE ( 'NONE', #551, #764, #276, .T. ) ;
#338 = DIRECTION ( 'NONE',  ( 0.0000000000000000000, 0.0000000000000000000, -1.000000000000000000 ) ) ;
#339 = VERTEX_POINT ( 'NONE', #851 ) ;
#340 = ADVANCED_FACE ( 'NONE', ( #277 ), #797, .T. ) ;
#341 = FACE_OUTER_BOUND ( 'NONE', #366, .T. ) ;
#342 = AXIS2_PLACEMENT_3D ( 'NONE', #486, #502, #590 ) ;
#343 = DIRECTION ( 'NONE',  ( 0.0000000000000000000, 0.0000000000000000000, 1.000000000000000000 ) ) ;
#344 = EDGE_LOOP ( 'NONE', ( #567, #619, #323, #637, #770, #569, #759, #754, #328, #474 ) ) ;
#345 = ORIENTED_EDGE ( 'NONE', *, *, #261, .F. ) ;
#346 = ORIENTED_EDGE ( 'NONE', *, *, #190, .F. ) ;
#347 = ORIENTED_EDGE ( 'NONE', *, *, #337, .F. ) ;
#348 = ADVANCED_FACE ( 'NONE', ( #273 ), #271, .T. ) ;
#349 = DIRECTION ( 'NONE',  ( 1.000000000000000000, 0.0000000000000000000, 0.0000000000000000000 ) ) ;
#350 = CIRCLE ( 'NONE', #725, 0.1562500000000000000 ) ;
#351 = FACE_OUTER_BOUND ( 'NONE', #483, .T. ) ;
#352 = CIRCLE ( 'NONE', #80, 0.1874999999999999700 ) ;
#353 = CIRCLE ( 'NONE', #127, 0.2500000000000010000 ) ;
#354 = FACE_BOUND ( 'NONE', #600, .T. ) ;
#355 = CIRCLE ( 'NONE', #686, 0.1562499999982635800 ) ;
#356 = DIRECTION ( 'NONE',  ( -1.000000000000000000, 0.0000000000000000000, -0.0000000000000000000 ) ) ;
#357 = FACE_OUTER_BOUND ( 'NONE', #473, .T. ) ;
#358 = ORIENTED_EDGE ( 'NONE', *, *, #36, .F. ) ;
#359 = ORIENTED_EDGE ( 'NONE', *, *, #718, .F. ) ;
#360 = ORIENTED_EDGE ( 'NONE', *, *, #370, .F. ) ;
#361 = ORIENTED_EDGE ( 'NONE', *, *, #75, .F. ) ;
#362 = ADVANCED_FACE ( 'NONE', ( #279 ), #269, .F. ) ;
#363 = ORIENTED_EDGE ( 'NONE', *, *, #552, .T. ) ;
#364 = VERTEX_POINT ( 'NONE', #605 ) ;
#365 =( LENGTH_UNIT ( ) NAMED_UNIT ( * ) SI_UNIT ( $, .METRE. ) );
#366 = EDGE_LOOP ( 'NONE', ( #491, #767, #427, #345 ) ) ;
#367 = VERTEX_POINT ( 'NONE', #666 ) ;
#368 = DIRECTION ( 'NONE',  ( 0.0000000000000000000, 0.0000000000000000000, -1.000000000000000000 ) ) ;
#369 = PERSON_AND_ORGANIZATION_ROLE ( 'creator' ) ;
#370 = EDGE_CURVE ( 'NONE', #430, #331, #267, .T. ) ;
#371 = ORIENTED_EDGE ( 'NONE', *, *, #713, .F. ) ;
#372 = VERTEX_POINT ( 'NONE', #783 ) ;
#373 = DIRECTION ( 'NONE',  ( 0.0000000000000000000, 0.0000000000000000000, -1.000000000000000000 ) ) ;
#374 = ORIENTED_EDGE ( 'NONE', *, *, #746, .T. ) ;
#375 = AXIS2_PLACEMENT_3D ( 'NONE', #654, #234, #543 ) ;
#376 = ORIENTED_EDGE ( 'NONE', *, *, #689, .F. ) ;
#377 = ORIENTED_EDGE ( 'NONE', *, *, #20, .F. ) ;
#378 = DIRECTION ( 'NONE',  ( 0.0000000000000000000, 0.0000000000000000000, -1.000000000000000000 ) ) ;
#379 = ORIENTED_EDGE ( 'NONE', *, *, #14, .F. ) ;
#380 = FACE_OUTER_BOUND ( 'NONE', #457, .T. ) ;
#381 = CIRCLE ( 'NONE', #23, 0.2500000000000010000 ) ;
#382 = CARTESIAN_POINT ( 'NONE',  ( 14.40224999999921500, 0.2088799212598420100, 0.04000000000000099300 ) ) ;
#383 = CYLINDRICAL_SURFACE ( 'NONE', #310, 0.1562500000000000000 ) ;
#384 = FACE_OUTER_BOUND ( 'NONE', #509, .T. ) ;
#385 = DATE_TIME_ROLE ( 'classification_date' ) ;
#386 = VECTOR ( 'NONE', #596, 39.37007874015748900 ) ;
#387 = DIRECTION ( 'NONE',  ( -1.000000000000000000, -0.0000000000000000000, -0.0000000000000000000 ) ) ;
#388 = LINE ( 'NONE', #833, #320 ) ;
#389 =( CONVERSION_BASED_UNIT ( 'INCH', #189 ) LENGTH_UNIT ( ) NAMED_UNIT ( #112 ) );
#390 = EDGE_LOOP ( 'NONE', ( #586, #584 ) ) ;
#391 = CARTESIAN_POINT ( 'NONE',  ( 14.40224999999921500, 0.1108799212598419900, 9.902948977032954400E-016 ) ) ;
#392 = ORIENTED_EDGE ( 'NONE', *, *, #83, .F. ) ;
#393 = DIRECTION ( 'NONE',  ( 0.0000000000000000000, -1.000000000000000000, 0.0000000000000000000 ) ) ;
#394 = ORIENTED_EDGE ( 'NONE', *, *, #834, .F. ) ;
#395 = ORIENTED_EDGE ( 'NONE', *, *, #575, .T. ) ;
#396 = VERTEX_POINT ( 'NONE', #863 ) ;
#397 = DIRECTION ( 'NONE',  ( -1.000000000000000000, 0.0000000000000000000, 0.0000000000000000000 ) ) ;
#398 = ORIENTED_EDGE ( 'NONE', *, *, #432, .T. ) ;
#399 = DIRECTION ( 'NONE',  ( -0.0000000000000000000, -1.000000000000000000, -0.0000000000000000000 ) ) ;
#400 = ORIENTED_EDGE ( 'NONE', *, *, #22, .F. ) ;
#401 = AXIS2_PLACEMENT_3D ( 'NONE', #68, #818, #161 ) ;
#402 = CARTESIAN_POINT ( 'NONE',  ( 0.1250000000000001100, 0.0000000000000000000, 0.0000000000000000000 ) ) ;
#403 = VERTEX_POINT ( 'NONE', #858 ) ;
#404 = ORIENTED_EDGE ( 'NONE', *, *, #714, .F. ) ;
#405 = VERTEX_POINT ( 'NONE', #47 ) ;
#406 = ORIENTED_EDGE ( 'NONE', *, *, #126, .F. ) ;
#407 = ORIENTED_EDGE ( 'NONE', *, *, #40, .F. ) ;
#408 = EDGE_LOOP ( 'NONE', ( #453, #772 ) ) ;
#409 = CARTESIAN_POINT ( 'NONE',  ( 14.38063006310284000, 0.1524973726392756000, 0.03412207474813716600 ) ) ;
#410 = EDGE_LOOP ( 'NONE', ( #582, #570 ) ) ;
#411 = DIRECTION ( 'NONE',  ( 0.0000000000000000000, 0.0000000000000000000, -1.000000000000000000 ) ) ;
#412 = CIRCLE ( 'NONE', #862, 0.2500000000000010000 ) ;
#413 = DIRECTION ( 'NONE',  ( -1.000000000000000000, -0.0000000000000000000, -0.0000000000000000000 ) ) ;
#414 = VERTEX_POINT ( 'NONE', #537 ) ;
#415 = ORIENTED_EDGE ( 'NONE', *, *, #489, .F. ) ;
#416 = CARTESIAN_POINT ( 'NONE',  ( 14.34224999999921700, 0.0000000000000000000, 0.0000000000000000000 ) ) ;
#417 = ORIENTED_EDGE ( 'NONE', *, *, #136, .T. ) ;
#418 = ORIENTED_EDGE ( 'NONE', *, *, #22, .T. ) ;
#419 = DIRECTION ( 'NONE',  ( 1.000000000000000000, 0.0000000000000000000, 0.0000000000000000000 ) ) ;
#420 = EDGE_CURVE ( 'NONE', #476, #492, #264, .T. ) ;
#421 = ORIENTED_EDGE ( 'NONE', *, *, #552, .F. ) ;
#422 = CARTESIAN_POINT ( 'NONE',  ( 15.08224999999921700, 0.0000000000000000000, 0.0000000000000000000 ) ) ;
#423 = EDGE_LOOP ( 'NONE', ( #442, #550, #616, #446 ) ) ;
#424 = VERTEX_POINT ( 'NONE', #25 ) ;
#425 = DIRECTION ( 'NONE',  ( 0.0000000000000000000, 0.0000000000000000000, -1.000000000000000000 ) ) ;
#426 = CARTESIAN_POINT ( 'NONE',  ( 14.80224999999921600, 0.1108799212598419900, 0.04000000000000099300 ) ) ;
#427 = ORIENTED_EDGE ( 'NONE', *, *, #638, .F. ) ;
#428 = ORIENTED_EDGE ( 'NONE', *, *, #96, .T. ) ;
#429 = DIRECTION ( 'NONE',  ( -1.000000000000000000, -0.0000000000000000000, -0.0000000000000000000 ) ) ;
#430 = VERTEX_POINT ( 'NONE', #763 ) ;
#431 = PLANE ( 'NONE',  #707 ) ;
#432 = EDGE_CURVE ( 'NONE', #485, #414, #281, .T. ) ;
#433 = ORIENTED_EDGE ( 'NONE', *, *, #718, .T. ) ;
#434 = DIRECTION ( 'NONE',  ( 1.000000000000000000, 0.0000000000000000000, 0.0000000000000000000 ) ) ;
#435 = EDGE_LOOP ( 'NONE', ( #574, #497, #404, #501 ) ) ;
#436 = ORIENTED_EDGE ( 'NONE', *, *, #327, .F. ) ;
#437 = ORIENTED_EDGE ( 'NONE', *, *, #420, .T. ) ;
#438 = ORIENTED_EDGE ( 'NONE', *, *, #786, .F. ) ;
#439 = EDGE_LOOP ( 'NONE', ( #394, #445 ) ) ;
#440 = ORIENTED_EDGE ( 'NONE', *, *, #81, .T. ) ;
#441 = VERTEX_POINT ( 'NONE', #845 ) ;
#442 = ORIENTED_EDGE ( 'NONE', *, *, #530, .F. ) ;
#443 = DIRECTION ( 'NONE',  ( -1.000000000000000000, 0.0000000000000000000, 0.0000000000000000000 ) ) ;
#444 = CARTESIAN_POINT ( 'NONE',  ( 14.36702916870109100, 0.1603488011707570600, 0.01956477032441009800 ) ) ;
#445 = ORIENTED_EDGE ( 'NONE', *, *, #432, .F. ) ;
#446 = ORIENTED_EDGE ( 'NONE', *, *, #81, .F. ) ;
#447 = DIRECTION ( 'NONE',  ( -1.000000000000000000, -0.0000000000000000000, -0.0000000000000000000 ) ) ;
#448 = ORIENTED_EDGE ( 'NONE', *, *, #139, .T. ) ;
#449 = DIRECTION ( 'NONE',  ( 1.000000000000000000, -0.0000000000000000000, -0.0000000000000000000 ) ) ;
#450 = ORIENTED_EDGE ( 'NONE', *, *, #218, .F. ) ;
#451 = ORIENTED_EDGE ( 'NONE', *, *, #14, .T. ) ;
#452 = PRODUCT_DEFINITION_SHAPE ( 'NONE', 'NONE',  #809 ) ;
#453 = ORIENTED_EDGE ( 'NONE', *, *, #489, .T. ) ;
#454 = CARTESIAN_POINT ( 'NONE',  ( 14.36224846819782300, 0.1662519003540850500, -0.005366771612603960800 ) ) ;
#455 = VERTEX_POINT ( 'NONE', #48 ) ;
#456 = EDGE_LOOP ( 'NONE', ( #653, #376, #571, #359 ) ) ;
#457 = EDGE_LOOP ( 'NONE', ( #406, #557, #661, #560 ) ) ;
#458 = ORIENTED_EDGE ( 'NONE', *, *, #139, .F. ) ;
#459 = ORIENTED_EDGE ( 'NONE', *, *, #635, .F. ) ;
#460 = ORIENTED_EDGE ( 'NONE', *, *, #218, .T. ) ;
#461 = VERTEX_POINT ( 'NONE', #806 ) ;
#462 = CARTESIAN_POINT ( 'NONE',  ( 0.3750000000000002200, 0.0000000000000000000, -0.2500000000000010000 ) ) ;
#463 = DIRECTION ( 'NONE',  ( 1.000000000000000000, 0.0000000000000000000, 0.0000000000000000000 ) ) ;
#464 = ORIENTED_EDGE ( 'NONE', *, *, #465, .F. ) ;
#465 = EDGE_CURVE ( 'NONE', #405, #631, #262, .T. ) ;
#466 = ORIENTED_EDGE ( 'NONE', *, *, #142, .T. ) ;
#467 = CARTESIAN_POINT ( 'NONE',  ( 14.37224999999921600, 0.1539937092853386200, -0.02645751311064565100 ) ) ;
#468 = ORIENTED_EDGE ( 'NONE', *, *, #2, .T. ) ;
#469 = AXIS2_PLACEMENT_3D ( 'NONE', #317, #37, #82 ) ;
#470 = ORIENTED_EDGE ( 'NONE', *, *, #149, .F. ) ;
#471 = DIRECTION ( 'NONE',  ( -1.000000000000000000, 0.0000000000000000000, 0.0000000000000000000 ) ) ;
#472 = ORIENTED_EDGE ( 'NONE', *, *, #575, .F. ) ;
#473 = EDGE_LOOP ( 'NONE', ( #760, #518, #546, #450 ) ) ;
#474 = ORIENTED_EDGE ( 'NONE', *, *, #252, .F. ) ;
#475 = DIRECTION ( 'NONE',  ( -1.000000000000000000, 0.0000000000000000000, 0.0000000000000000000 ) ) ;
#476 = VERTEX_POINT ( 'NONE', #849 ) ;
#477 = EDGE_LOOP ( 'NONE', ( #595, #628, #418, #464 ) ) ;
#478 = CARTESIAN_POINT ( 'NONE',  ( 15.09224999999921700, 0.0000000000000000000, 0.0000000000000000000 ) ) ;
#479 = EDGE_LOOP ( 'NONE', ( #325, #377, #428, #645 ) ) ;
#480 = DIRECTION ( 'NONE',  ( -0.0000000000000000000, -1.000000000000000000, -0.0000000000000000000 ) ) ;
#481 = DIRECTION ( 'NONE',  ( 0.0000000000000000000, 0.0000000000000000000, 1.000000000000000000 ) ) ;
#482 = VERTEX_POINT ( 'NONE', #799 ) ;
#483 = EDGE_LOOP ( 'NONE', ( #514, #516 ) ) ;
#484 = ORIENTED_EDGE ( 'NONE', *, *, #20, .T. ) ;
#485 = VERTEX_POINT ( 'NONE', #566 ) ;
#486 = CARTESIAN_POINT ( 'NONE',  ( 14.40224999999921500, 0.2088799212598420100, -0.03999999999999900900 ) ) ;
#487 = DIRECTION ( 'NONE',  ( 1.000000000000000000, 0.0000000000000000000, 0.0000000000000000000 ) ) ;
#488 = ORIENTED_EDGE ( 'NONE', *, *, #670, .F. ) ;
#489 = EDGE_CURVE ( 'NONE', #554, #612, #270, .T. ) ;
#490 = APPLICATION_PROTOCOL_DEFINITION ( 'international standard', 'config_control_design', 1994, #585 ) ;
#491 = ORIENTED_EDGE ( 'NONE', *, *, #215, .F. ) ;
#492 = VERTEX_POINT ( 'NONE', #53 ) ;
#493 = CARTESIAN_POINT ( 'NONE',  ( 13.12500000000000000, 0.0000000000000000000, -0.2500000000000010000 ) ) ;
#494 = EDGE_LOOP ( 'NONE', ( #768, #433, #563, #436 ) ) ;
#495 = CARTESIAN_POINT ( 'NONE',  ( 15.09224999999921700, 0.0000000000000000000, 0.0000000000000000000 ) ) ;
#496 = AXIS2_PLACEMENT_3D ( 'NONE', #855, #6, #322 ) ;
#497 = ORIENTED_EDGE ( 'NONE', *, *, #689, .T. ) ;
#498 = DIRECTION ( 'NONE',  ( 1.000000000000000000, -0.0000000000000000000, -0.0000000000000000000 ) ) ;
#499 = ORIENTED_EDGE ( 'NONE', *, *, #853, .F. ) ;
#500 = DIRECTION ( 'NONE',  ( -0.0000000000000000000, -1.000000000000000000, -0.0000000000000000000 ) ) ;
#501 = ORIENTED_EDGE ( 'NONE', *, *, #593, .F. ) ;
#502 = DIRECTION ( 'NONE',  ( 0.0000000000000000000, 0.0000000000000000000, -1.000000000000000000 ) ) ;
#503 = CARTESIAN_POINT ( 'NONE',  ( 13.12500000000000000, 0.0000000000000000000, 0.0000000000000000000 ) ) ;
#504 = VERTEX_POINT ( 'NONE', #796 ) ;
#505 = VERTEX_POINT ( 'NONE', #71 ) ;
#506 = VERTEX_POINT ( 'NONE', #103 ) ;
#507 = EDGE_LOOP ( 'NONE', ( #458, #415, #578, #358 ) ) ;
#508 = EDGE_LOOP ( 'NONE', ( #371, #511, #460, #577 ) ) ;
#509 = EDGE_LOOP ( 'NONE', ( #468, #335, #472, #347 ) ) ;
#510 = EDGE_LOOP ( 'NONE', ( #333, #488, #765, #662 ) ) ;
#511 = ORIENTED_EDGE ( 'NONE', *, *, #730, .F. ) ;
#512 = DIRECTION ( 'NONE',  ( 0.0000000000000000000, 0.0000000000000000000, -1.000000000000000000 ) ) ;
#513 = ADVANCED_BREP_SHAPE_REPRESENTATION ( 'am-3257 DART 12 Lead Screw', ( #33, #29 ), #7 ) ;
#514 = ORIENTED_EDGE ( 'NONE', *, *, #2, .F. ) ;
#515 = CARTESIAN_POINT ( 'NONE',  ( 14.34099999999999900, 0.0000000000000000000, 0.0000000000000000000 ) ) ;
#516 = ORIENTED_EDGE ( 'NONE', *, *, #21, .F. ) ;
#517 = ADVANCED_FACE ( 'NONE', ( #263 ), #251, .T. ) ;
#518 = ORIENTED_EDGE ( 'NONE', *, *, #713, .T. ) ;
#519 = EDGE_CURVE ( 'NONE', #403, #492, #253, .T. ) ;
#520 = CYLINDRICAL_SURFACE ( 'NONE', #43, 0.1874999999999999700 ) ;
#521 = DIRECTION ( 'NONE',  ( 1.000000000000000000, 0.0000000000000000000, 0.0000000000000000000 ) ) ;
#522 = LINE ( 'NONE', #592, #526 ) ;
#523 = DIRECTION ( 'NONE',  ( 1.000000000000000000, -0.0000000000000000000, -0.0000000000000000000 ) ) ;
#524 = VECTOR ( 'NONE', #687, 39.37007874015748100 ) ;
#525 = FACE_BOUND ( 'NONE', #390, .T. ) ;
#526 = VECTOR ( 'NONE', #694, 39.37007874015748100 ) ;
#527 = CARTESIAN_POINT ( 'NONE',  ( 14.80224999999921600, 0.1510432471181683800, -0.03999999999999900900 ) ) ;
#528 = CYLINDRICAL_SURFACE ( 'NONE', #121, 0.2500000000000010000 ) ;
#529 = CARTESIAN_POINT ( 'NONE',  ( 14.40224999999921500, 0.1108799212598419900, -0.03999999999999900900 ) ) ;
#530 = EDGE_CURVE ( 'NONE', #505, #624, #254, .T. ) ;
#531 = FACE_OUTER_BOUND ( 'NONE', #579, .T. ) ;
#532 = DIRECTION ( 'NONE',  ( 1.000000000000000000, 0.0000000000000000000, 0.0000000000000000000 ) ) ;
#533 = CONICAL_SURFACE ( 'NONE', #496, 0.06250000000000000000, 0.7853981633974863600 ) ;
#534 = AXIS2_PLACEMENT_3D ( 'NONE', #495, #463, #664 ) ;
#535 = FACE_OUTER_BOUND ( 'NONE', #423, .T. ) ;
#536 = CIRCLE ( 'NONE', #97, 0.1562500000000000000 ) ;
#537 = CARTESIAN_POINT ( 'NONE',  ( 13.12500000000000000, 0.0000000000000000000, 0.1874999999999999700 ) ) ;
#538 = CIRCLE ( 'NONE', #16, 0.07250000000000639300 ) ;
#539 = CARTESIAN_POINT ( 'NONE',  ( 0.1250000000000001100, 1.913510623667739500E-017, 0.1562500000000000000 ) ) ;
#540 = CARTESIAN_POINT ( 'NONE',  ( 0.3750000000000001100, 0.0000000000000000000, 0.0000000000000000000 ) ) ;
#541 = LINE ( 'NONE', #647, #524 ) ;
#542 = DIRECTION ( 'NONE',  ( 0.0000000000000000000, 0.0000000000000000000, -1.000000000000000000 ) ) ;
#543 = DIRECTION ( 'NONE',  ( 0.0000000000000000000, 0.0000000000000000000, -1.000000000000000000 ) ) ;
#544 = DIRECTION ( 'NONE',  ( 0.0000000000000000000, 0.0000000000000000000, -1.000000000000000000 ) ) ;
#545 = CARTESIAN_POINT ( 'NONE',  ( 14.37224999999921600, 0.1539937092871001300, 0.02645751311064756900 ) ) ;
#546 = ORIENTED_EDGE ( 'NONE', *, *, #170, .F. ) ;
#547 = DIRECTION ( 'NONE',  ( 0.0000000000000000000, 0.0000000000000000000, -1.000000000000000000 ) ) ;
#548 = DIRECTION ( 'NONE',  ( 0.0000000000000000000, 0.0000000000000000000, 1.000000000000000000 ) ) ;
#549 = AXIS2_PLACEMENT_3D ( 'NONE', #568, #399, #547 ) ;
#550 = ORIENTED_EDGE ( 'NONE', *, *, #21, .T. ) ;
#551 = VERTEX_POINT ( 'NONE', #462 ) ;
#552 = EDGE_CURVE ( 'NONE', #441, #476, #256, .T. ) ;
#553 = CARTESIAN_POINT ( 'NONE',  ( 14.36338675829338000, 0.1648366945253169900, 0.01062711810848422000 ) ) ;
#554 = VERTEX_POINT ( 'NONE', #757 ) ;
#555 = AXIS2_PLACEMENT_3D ( 'NONE', #478, #413, #378 ) ;
#556 = DIRECTION ( 'NONE',  ( 0.0000000000000000000, 0.0000000000000000000, 1.000000000000000000 ) ) ;
#557 = ORIENTED_EDGE ( 'NONE', *, *, #36, .T. ) ;
#558 = ORIENTED_EDGE ( 'NONE', *, *, #853, .T. ) ;
#559 = VERTEX_POINT ( 'NONE', #109 ) ;
#560 = ORIENTED_EDGE ( 'NONE', *, *, #83, .T. ) ;
#561 = DIRECTION ( 'NONE',  ( 0.7071067811865667800, 8.659560562354697400E-017, 0.7071067811865281400 ) ) ;
#562 = EDGE_LOOP ( 'NONE', ( #459, #361, #646, #603, #438, #470 ) ) ;
#563 = ORIENTED_EDGE ( 'NONE', *, *, #746, .F. ) ;
#564 = ADVANCED_FACE ( 'NONE', ( #272, #258 ), #728, .T. ) ;
#565 = EDGE_LOOP ( 'NONE', ( #761, #448, #756, #407 ) ) ;
#566 = CARTESIAN_POINT ( 'NONE',  ( 13.12500000000000000, 2.296212748401286500E-017, -0.1874999999999999700 ) ) ;
#567 = ORIENTED_EDGE ( 'NONE', *, *, #638, .T. ) ;
#568 = CARTESIAN_POINT ( 'NONE',  ( 14.80224999999921600, 0.2088799212598420100, 9.902948977032954400E-016 ) ) ;
#569 = ORIENTED_EDGE ( 'NONE', *, *, #116, .T. ) ;
#570 = ORIENTED_EDGE ( 'NONE', *, *, #215, .T. ) ;
#571 = ORIENTED_EDGE ( 'NONE', *, *, #136, .F. ) ;
#572 = AXIS2_PLACEMENT_3D ( 'NONE', #787, #349, #144 ) ;
#573 = CARTESIAN_POINT ( 'NONE',  ( 14.83420593143314800, 0.1543444704993047800, -0.02461276063911332900 ) ) ;
#574 = ORIENTED_EDGE ( 'NONE', *, *, #820, .T. ) ;
#575 = EDGE_CURVE ( 'NONE', #764, #624, #248, .T. ) ;
#576 = VERTEX_POINT ( 'NONE', #794 ) ;
#577 = ORIENTED_EDGE ( 'NONE', *, *, #64, .F. ) ;
#578 = ORIENTED_EDGE ( 'NONE', *, *, #40, .T. ) ;
#579 = EDGE_LOOP ( 'NONE', ( #346, #466, #398, #321 ) ) ;
#580 = EDGE_LOOP ( 'NONE', ( #499, #379, #437, #749 ) ) ;
#581 = DIRECTION ( 'NONE',  ( 0.0000000000000000000, -0.0000000000000000000, -1.000000000000000000 ) ) ;
#582 = ORIENTED_EDGE ( 'NONE', *, *, #670, .T. ) ;
#583 = DIRECTION ( 'NONE',  ( 1.000000000000000000, 0.0000000000000000000, 0.0000000000000000000 ) ) ;
#584 = ORIENTED_EDGE ( 'NONE', *, *, #64, .T. ) ;
#585 = APPLICATION_CONTEXT ( 'configuration controlled 3d designs of mechanical parts and assemblies' ) ;
#586 = ORIENTED_EDGE ( 'NONE', *, *, #170, .T. ) ;
#587 = EDGE_LOOP ( 'NONE', ( #604, #597, #591, #589 ) ) ;
#588 = CARTESIAN_POINT ( 'NONE',  ( 14.36949350621393900, 0.1573275920128687800, 0.02333194294785061200 ) ) ;
#589 = ORIENTED_EDGE ( 'NONE', *, *, #848, .T. ) ;
#590 = DIRECTION ( 'NONE',  ( -1.000000000000000000, 0.0000000000000000000, -0.0000000000000000000 ) ) ;
#591 = ORIENTED_EDGE ( 'NONE', *, *, #252, .T. ) ;
#592 = CARTESIAN_POINT ( 'NONE',  ( 14.34099999999999900, 0.0000000000000000000, 0.1874999999999999700 ) ) ;
#593 = EDGE_CURVE ( 'NONE', #632, #644, #247, .T. ) ;
#594 = VERTEX_POINT ( 'NONE', #301 ) ;
#595 = ORIENTED_EDGE ( 'NONE', *, *, #186, .T. ) ;
#596 = DIRECTION ( 'NONE',  ( 0.7071067811865667800, 0.0000000000000000000, -0.7071067811865281400 ) ) ;
#597 = ORIENTED_EDGE ( 'NONE', *, *, #673, .T. ) ;
#598 = EDGE_LOOP ( 'NONE', ( #451, #363 ) ) ;
#599 = CC_DESIGN_PERSON_AND_ORGANIZATION_ASSIGNMENT ( #162, #72, ( #798 ) ) ;
#600 = EDGE_LOOP ( 'NONE', ( #392, #400 ) ) ;
#601 = CARTESIAN_POINT ( 'NONE',  ( 14.37224999999921600, 0.0000000000000000000, 0.0000000000000000000 ) ) ;
#602 = CARTESIAN_POINT ( 'NONE',  ( 14.34099999999999900, 0.0000000000000000000, 0.0000000000000000000 ) ) ;
#603 = ORIENTED_EDGE ( 'NONE', *, *, #623, .T. ) ;
#604 = ORIENTED_EDGE ( 'NONE', *, *, #287, .F. ) ;
#605 = CARTESIAN_POINT ( 'NONE',  ( 15.09224999999921700, 0.0000000000000000000, 0.1462500000000017400 ) ) ;
#606 = ORIENTED_EDGE ( 'NONE', *, *, #820, .F. ) ;
#607 = AXIS2_PLACEMENT_3D ( 'NONE', #60, #743, #111 ) ;
#608 = ORIENTED_EDGE ( 'NONE', *, *, #848, .F. ) ;
#609 = DIRECTION ( 'NONE',  ( 1.000000000000000000, 0.0000000000000000000, 0.0000000000000000000 ) ) ;
#610 = ADVANCED_FACE ( 'NONE', ( #244 ), #241, .F. ) ;
#611 = CARTESIAN_POINT ( 'NONE',  ( 14.34099999999999900, 0.0000000000000000000, 0.0000000000000000000 ) ) ;
#612 = VERTEX_POINT ( 'NONE', #679 ) ;
#613 = PERSON_AND_ORGANIZATION_ROLE ( 'classification_officer' ) ;
#614 = ORIENTED_EDGE ( 'NONE', *, *, #190, .T. ) ;
#615 = ORIENTED_EDGE ( 'NONE', *, *, #370, .T. ) ;
#616 = ORIENTED_EDGE ( 'NONE', *, *, #337, .T. ) ;
#617 = ORIENTED_EDGE ( 'NONE', *, *, #649, .F. ) ;
#618 = VERTEX_POINT ( 'NONE', #426 ) ;
#619 = ORIENTED_EDGE ( 'NONE', *, *, #287, .T. ) ;
#620 = EDGE_LOOP ( 'NONE', ( #395, #440 ) ) ;
#621 = ORIENTED_EDGE ( 'NONE', *, *, #635, .T. ) ;
#622 = VERTEX_POINT ( 'NONE', #658 ) ;
#623 = EDGE_CURVE ( 'NONE', #372, #396, #246, .T. ) ;
#624 = VERTEX_POINT ( 'NONE', #854 ) ;
#625 = APPROVAL_STATUS ( 'not_yet_approved' ) ;
#626 = ORIENTED_EDGE ( 'NONE', *, *, #41, .F. ) ;
#627 = SECURITY_CLASSIFICATION_LEVEL ( 'unclassified' ) ;
#628 = ORIENTED_EDGE ( 'NONE', *, *, #126, .T. ) ;
#629 = ORIENTED_EDGE ( 'NONE', *, *, #94, .F. ) ;
#630 = DIRECTION ( 'NONE',  ( 0.0000000000000000000, 0.0000000000000000000, -1.000000000000000000 ) ) ;
#631 = VERTEX_POINT ( 'NONE', #73 ) ;
#632 = VERTEX_POINT ( 'NONE', #742 ) ;
#633 = DIRECTION ( 'NONE',  ( 1.000000000000000000, 0.0000000000000000000, 0.0000000000000000000 ) ) ;
#634 = CIRCLE ( 'NONE', #70, 0.06250000000000000000 ) ;
#635 = EDGE_CURVE ( 'NONE', #339, #504, #680, .T. ) ;
#636 = CLOSED_SHELL ( 'NONE', ( #517, #50, #17, #362, #348, #843, #748, #76, #58, #30, #564, #100, #737, #221, #141, #107, #54, #340, #249, #857, #727, #688, #674, #610, #735, #134, #668, #200 ) ) ;
#637 = ORIENTED_EDGE ( 'NONE', *, *, #149, .T. ) ;
#638 = EDGE_CURVE ( 'NONE', #576, #455, #242, .T. ) ;
#639 = DIRECTION ( 'NONE',  ( 0.0000000000000000000, 0.0000000000000000000, 1.000000000000000000 ) ) ;
#640 = DIRECTION ( 'NONE',  ( 1.000000000000000000, 0.0000000000000000000, 0.0000000000000000000 ) ) ;
#641 = APPROVAL_ROLE ( '' ) ;
#642 = DIRECTION ( 'NONE',  ( 0.0000000000000000000, 0.0000000000000000000, 1.000000000000000000 ) ) ;
#643 = APPROVAL ( #74, 'UNSPECIFIED' ) ;
#644 = VERTEX_POINT ( 'NONE', #51 ) ;
#645 = ORIENTED_EDGE ( 'NONE', *, *, #834, .T. ) ;
#646 = ORIENTED_EDGE ( 'NONE', *, *, #714, .T. ) ;
#647 = CARTESIAN_POINT ( 'NONE',  ( 14.34099999999999900, -2.296212748397836200E-017, 0.1874999999997182000 ) ) ;
#648 = DIRECTION ( 'NONE',  ( -1.000000000000000000, -0.0000000000000000000, -0.0000000000000000000 ) ) ;
#649 = EDGE_CURVE ( 'NONE', #430, #504, #243, .T. ) ;
#650 = DIRECTION ( 'NONE',  ( 1.000000000000000000, 0.0000000000000000000, 0.0000000000000000000 ) ) ;
#651 = DIRECTION ( 'NONE',  ( 0.0000000000000000000, 0.0000000000000000000, -1.000000000000000000 ) ) ;
#652 = DIRECTION ( 'NONE',  ( 1.000000000000000000, 0.0000000000000000000, 0.0000000000000000000 ) ) ;
#653 = ORIENTED_EDGE ( 'NONE', *, *, #623, .F. ) ;
#654 = CARTESIAN_POINT ( 'NONE',  ( 0.1250000000000001100, 0.0000000000000000000, 0.0000000000000000000 ) ) ;
#655 = CARTESIAN_POINT ( 'NONE',  ( 14.80224999999921600, 0.2088799212598420100, -0.03999999999999900900 ) ) ;
#656 = CARTESIAN_POINT ( 'NONE',  ( 14.34099999999999900, 0.0000000000000000000, 0.0000000000000000000 ) ) ;
#657 = B_SPLINE_CURVE_WITH_KNOTS ( 'NONE', 3,
 ( #791, #769, #819, #409, #829, #726 ),
 .UNSPECIFIED., .F., .F.,
 ( 4, 2, 4 ),
 ( 0.0000000000000000000, 0.0004300363574202187600, 0.0008600727148404377400 ),
 .UNSPECIFIED. ) ;
#658 = CARTESIAN_POINT ( 'NONE',  ( 15.09224999999921700, 0.0000000000000000000, -0.07250000000000639300 ) ) ;
#659 = DIRECTION ( 'NONE',  ( 0.0000000000000000000, 0.0000000000000000000, -1.000000000000000000 ) ) ;
#660 = AXIS2_PLACEMENT_3D ( 'NONE', #402, #443, #548 ) ;
#661 = ORIENTED_EDGE ( 'NONE', *, *, #465, .T. ) ;
#662 = ORIENTED_EDGE ( 'NONE', *, *, #673, .F. ) ;
#663 = APPROVAL_STATUS ( 'not_yet_approved' ) ;
#664 = DIRECTION ( 'NONE',  ( 0.0000000000000000000, 0.0000000000000000000, -1.000000000000000000 ) ) ;
#665 = DIRECTION ( 'NONE',  ( 0.0000000000000000000, 0.0000000000000000000, -1.000000000000000000 ) ) ;
#666 = CARTESIAN_POINT ( 'NONE',  ( 0.3750000000000001100, 1.913510623667739500E-017, 0.1562500000000000000 ) ) ;
#667 = DIRECTION ( 'NONE',  ( 1.000000000000000000, 0.0000000000000000000, 0.0000000000000000000 ) ) ;
#668 = ADVANCED_FACE ( 'NONE', ( #239 ), #233, .F. ) ;
#669 = DIRECTION ( 'NONE',  ( -0.0000000000000000000, -1.000000000000000000, -0.0000000000000000000 ) ) ;
#670 = EDGE_CURVE ( 'NONE', #364, #482, #235, .T. ) ;
#671 = APPROVAL_ROLE ( '' ) ;
#672 =( NAMED_UNIT ( * ) PLANE_ANGLE_UNIT ( ) SI_UNIT ( $, .RADIAN. ) );
#673 = EDGE_CURVE ( 'NONE', #455, #576, #250, .T. ) ;
#674 = ADVANCED_FACE ( 'NONE', ( #238 ), #431, .F. ) ;
#675 = B_SPLINE_CURVE_WITH_KNOTS ( 'NONE', 3,
 ( #101, #803, #192, #79, #123, #826 ),
 .UNSPECIFIED., .F., .F.,
 ( 4, 2, 4 ),
 ( 5.601396468860311100E-015, 0.0004301949516917360600, 0.0008603899033778707000 ),
 .UNSPECIFIED. ) ;
#676 = CARTESIAN_POINT ( 'NONE',  ( 14.40224999999921500, 0.2088799212598420100, -0.03999999999999900900 ) ) ;
#677 = DIRECTION ( 'NONE',  ( 0.0000000000000000000, 0.0000000000000000000, 1.000000000000000000 ) ) ;
#678 = CARTESIAN_POINT ( 'NONE',  ( 14.34099999999999900, 2.296212748401286500E-017, -0.1874999999999999700 ) ) ;
#679 = CARTESIAN_POINT ( 'NONE',  ( 0.1250000000000001100, 1.852278283710368900E-017, 0.1462499999999995700 ) ) ;
#680 = B_SPLINE_CURVE_WITH_KNOTS ( 'NONE', 3,
 ( #545, #588, #444, #553, #213, #454, #811, #128, #864, #467 ),
 .UNSPECIFIED., .F., .F.,
 ( 4, 2, 2, 2, 4 ),
 ( 4.853940147782109800E-005, 0.0004528808733750163700, 0.0008572223452722115800, 0.001261563817169406800, 0.001665905289066602100 ),
 .UNSPECIFIED. ) ;
#681 = PERSON_AND_ORGANIZATION_ROLE ( 'design_owner' ) ;
#682 = CARTESIAN_POINT ( 'NONE',  ( 0.0000000000000000000, 0.0000000000000000000, 0.0000000000000000000 ) ) ;
#683 = AXIS2_PLACEMENT_3D ( 'NONE', #782, #95, #639 ) ;
#684 = CARTESIAN_POINT ( 'NONE',  ( 15.09224999999921700, 0.0000000000000000000, 0.0000000000000000000 ) ) ;
#685 = DIRECTION ( 'NONE',  ( -1.000000000000000000, 0.0000000000000000000, 0.0000000000000000000 ) ) ;
#686 = AXIS2_PLACEMENT_3D ( 'NONE', #840, #102, #813 ) ;
#687 = DIRECTION ( 'NONE',  ( -0.7071067811612307100, -8.659560562664974900E-017, 0.7071067812118643200 ) ) ;
#688 = ADVANCED_FACE ( 'NONE', ( #236 ), #773, .F. ) ;
#689 = EDGE_CURVE ( 'NONE', #618, #372, #230, .T. ) ;
#690 = CARTESIAN_POINT ( 'NONE',  ( 14.80755807952327500, 0.1510432471181684100, -0.03999999999999901600 ) ) ;
#691 = DIRECTION ( 'NONE',  ( -1.000000000000000000, -0.0000000000000000000, -0.0000000000000000000 ) ) ;
#692 = CARTESIAN_POINT ( 'NONE',  ( 15.09224999999921700, 0.0000000000000000000, 0.0000000000000000000 ) ) ;
#693 = CARTESIAN_POINT ( 'NONE',  ( 14.81276453596592400, 0.1513322712048832400, -0.03894724560665636200 ) ) ;
#694 = DIRECTION ( 'NONE',  ( -1.000000000000000000, -0.0000000000000000000, -0.0000000000000000000 ) ) ;
#695 = CARTESIAN_POINT ( 'NONE',  ( 14.37224999999921600, 0.0000000000000000000, 0.0000000000000000000 ) ) ;
#696 = CARTESIAN_POINT ( 'NONE',  ( 14.82686145885510200, 0.1529926727883254800, -0.03195693403744170900 ) ) ;
#697 = DIRECTION ( 'NONE',  ( 0.0000000000000000000, 0.0000000000000000000, -1.000000000000000000 ) ) ;
#698 = EDGE_CURVE ( 'NONE', #612, #554, #237, .T. ) ;
#699 = DIRECTION ( 'NONE',  ( 0.0000000000000000000, 0.0000000000000000000, -1.000000000000000000 ) ) ;
#700 = CARTESIAN_POINT ( 'NONE',  ( 14.84121543082168200, 0.1559761043452561900, 0.01045635917546439000 ) ) ;
#701 = CARTESIAN_POINT ( 'NONE',  ( 15.09224999999921700, 0.0000000000000000000, 0.0000000000000000000 ) ) ;
#702 = CARTESIAN_POINT ( 'NONE',  ( 0.3750000000000001100, 0.2500000000000010000, 0.0000000000000000000 ) ) ;
#703 = DIRECTION ( 'NONE',  ( 0.7071067811865205900, 8.659560562355262000E-017, 0.7071067811865743300 ) ) ;
#704 = CARTESIAN_POINT ( 'NONE',  ( 14.80755823655984000, 0.1510432471181678600, 0.04000000000000100000 ) ) ;
#705 = CARTESIAN_POINT ( 'NONE',  ( 14.84118209696326800, 0.1559679382565770400, -0.01055467148458562000 ) ) ;
#706 = DIRECTION ( 'NONE',  ( 0.0000000000000000000, 0.0000000000000000000, -1.000000000000000000 ) ) ;
#707 = AXIS2_PLACEMENT_3D ( 'NONE', #391, #393, #581 ) ;
#708 = CARTESIAN_POINT ( 'NONE',  ( 14.83718285460815500, 0.1550180438565726400, -0.02016940586722072000 ) ) ;
#709 = CARTESIAN_POINT ( 'NONE',  ( 14.84224526450300500, 0.1562487877134279600, -0.005277104781130107100 ) ) ;
#710 = CC_DESIGN_APPROVAL ( #117, ( #188 ) ) ;
#711 = CARTESIAN_POINT ( 'NONE',  ( 14.84225470306382100, 0.1562512039840813200, 0.005205069674069277500 ) ) ;
#712 = CARTESIAN_POINT ( 'NONE',  ( 14.80224999999921600, 0.1510432471181678600, 0.04000000000000099300 ) ) ;
#713 = EDGE_CURVE ( 'NONE', #403, #762, #229, .T. ) ;
#714 = EDGE_CURVE ( 'NONE', #644, #372, #240, .T. ) ;
#715 = DESIGN_CONTEXT ( 'detailed design', #844, 'design' ) ;
#716 = AXIS2_PLACEMENT_3D ( 'NONE', #515, #745, #665 ) ;
#717 = DIRECTION ( 'NONE',  ( 1.000000000000000000, 0.0000000000000000000, 0.0000000000000000000 ) ) ;
#718 = EDGE_CURVE ( 'NONE', #396, #334, #225, .T. ) ;
#719 = PLANE ( 'NONE',  #143 ) ;
#720 = CARTESIAN_POINT ( 'NONE',  ( 14.34224999999921700, 7.654042494670956000E-018, 0.06250000000000000000 ) ) ;
#721 = CARTESIAN_POINT ( 'NONE',  ( 14.81279081764594900, 0.1513345108249959400, 0.03893835811700111600 ) ) ;
#722 = DIRECTION ( 'NONE',  ( 1.000000000000000000, 0.0000000000000000000, 0.0000000000000000000 ) ) ;
#723 = AXIS2_PLACEMENT_3D ( 'NONE', #61, #480, #34 ) ;
#724 = CARTESIAN_POINT ( 'NONE',  ( 0.1250000000000001100, 0.0000000000000000000, -0.1562500000000000000 ) ) ;
#725 = AXIS2_PLACEMENT_3D ( 'NONE', #775, #434, #784 ) ;
#726 = CARTESIAN_POINT ( 'NONE',  ( 14.37224999999921600, 0.1539937092871001300, 0.02645751311064756900 ) ) ;
#727 = ADVANCED_FACE ( 'NONE', ( #227 ), #216, .F. ) ;
#728 = PLANE ( 'NONE',  #38 ) ;
#729 = DIRECTION ( 'NONE',  ( 1.000000000000000000, 0.0000000000000000000, 0.0000000000000000000 ) ) ;
#730 = EDGE_CURVE ( 'NONE', #492, #403, #217, .T. ) ;
#731 = DIRECTION ( 'NONE',  ( -1.000000000000000000, -0.0000000000000000000, -0.0000000000000000000 ) ) ;
#732 = CARTESIAN_POINT ( 'NONE',  ( 14.40224999999921500, 0.1108799212598419900, 0.04000000000000099300 ) ) ;
#733 = DIRECTION ( 'NONE',  ( 0.0000000000000000000, 0.0000000000000000000, 1.000000000000000000 ) ) ;
#734 = AXIS2_PLACEMENT_3D ( 'NONE', #823, #789, #326 ) ;
#735 = ADVANCED_FACE ( 'NONE', ( #223 ), #92, .T. ) ;
#736 = AXIS2_PLACEMENT_3D ( 'NONE', #85, #652, #807 ) ;
#737 = ADVANCED_FACE ( 'NONE', ( #220 ), #210, .T. ) ;
#738 = CARTESIAN_POINT ( 'NONE',  ( 0.1250000000000001100, 0.0000000000000000000, 0.0000000000000000000 ) ) ;
#739 = CONICAL_SURFACE ( 'NONE', #106, 0.1462500000000017400, 0.7853981633974073100 ) ;
#740 = CARTESIAN_POINT ( 'NONE',  ( 14.40224999999921500, 0.2088799212598420100, 0.04000000000000099300 ) ) ;
#741 = CARTESIAN_POINT ( 'NONE',  ( 0.3749999999999999400, 0.0000000000000000000, 0.0000000000000000000 ) ) ;
#742 = CARTESIAN_POINT ( 'NONE',  ( 14.80224999999921600, 0.1510432471181678600, 0.04000000000000099300 ) ) ;
#743 = DIRECTION ( 'NONE',  ( 1.000000000000000000, 0.0000000000000000000, 0.0000000000000000000 ) ) ;
#744 = LINE ( 'NONE', #827, #386 ) ;
#745 = DIRECTION ( 'NONE',  ( -1.000000000000000000, -0.0000000000000000000, -0.0000000000000000000 ) ) ;
#746 = EDGE_CURVE ( 'NONE', #506, #334, #219, .T. ) ;
#747 = CARTESIAN_POINT ( 'NONE',  ( 0.1250000000000001100, 0.0000000000000000000, 0.0000000000000000000 ) ) ;
#748 = ADVANCED_FACE ( 'NONE', ( #208 ), #203, .T. ) ;
#749 = ORIENTED_EDGE ( 'NONE', *, *, #730, .T. ) ;
#750 = EDGE_LOOP ( 'NONE', ( #629, #626, #621, #617, #615, #614 ) ) ;
#751 = DIRECTION ( 'NONE',  ( 1.000000000000000000, 0.0000000000000000000, 0.0000000000000000000 ) ) ;
#752 = CARTESIAN_POINT ( 'NONE',  ( 15.09224999999921700, 0.1510432471181683800, -0.03999999999999900900 ) ) ;
#753 = CC_DESIGN_DATE_AND_TIME_ASSIGNMENT ( #172, #125, ( #809 ) ) ;
#754 = ORIENTED_EDGE ( 'NONE', *, *, #75, .T. ) ;
#755 = AXIS2_PLACEMENT_3D ( 'NONE', #35, #487, #706 ) ;
#756 = ORIENTED_EDGE ( 'NONE', *, *, #186, .F. ) ;
#757 = CARTESIAN_POINT ( 'NONE',  ( 0.1250000000000001100, 0.0000000000000000000, -0.1462499999999995700 ) ) ;
#758 = ORIENTED_EDGE ( 'NONE', *, *, #420, .F. ) ;
#759 = ORIENTED_EDGE ( 'NONE', *, *, #593, .T. ) ;
#760 = ORIENTED_EDGE ( 'NONE', *, *, #519, .F. ) ;
#761 = ORIENTED_EDGE ( 'NONE', *, *, #698, .F. ) ;
#762 = VERTEX_POINT ( 'NONE', #814 ) ;
#763 = CARTESIAN_POINT ( 'NONE',  ( 14.37224999999921600, 0.0000000000000000000, -0.1562499999982635800 ) ) ;
#764 = VERTEX_POINT ( 'NONE', #493 ) ;
#765 = ORIENTED_EDGE ( 'NONE', *, *, #261, .T. ) ;
#766 = EDGE_LOOP ( 'NONE', ( #608, #329, #484, #360 ) ) ;
#767 = ORIENTED_EDGE ( 'NONE', *, *, #119, .T. ) ;
#768 = ORIENTED_EDGE ( 'NONE', *, *, #786, .T. ) ;
#769 = CARTESIAN_POINT ( 'NONE',  ( 14.39652326453272100, 0.1510432471181678800, 0.04000000000000100000 ) ) ;
#770 = ORIENTED_EDGE ( 'NONE', *, *, #327, .T. ) ;
#771 = APPROVAL ( #663, 'UNSPECIFIED' ) ;
#772 = ORIENTED_EDGE ( 'NONE', *, *, #698, .T. ) ;
#773 = PLANE ( 'NONE',  #342 ) ;
#774 = DIRECTION ( 'NONE',  ( -1.000000000000000000, -0.0000000000000000000, -0.0000000000000000000 ) ) ;
#775 = CARTESIAN_POINT ( 'NONE',  ( 0.1350000000000010900, 0.0000000000000000000, 0.0000000000000000000 ) ) ;
#776 = AXIS2_PLACEMENT_3D ( 'NONE', #32, #521, #330 ) ;
#777 = DIRECTION ( 'NONE',  ( -0.0000000000000000000, 0.0000000000000000000, 1.000000000000000000 ) ) ;
#778 = ORIENTED_EDGE ( 'NONE', *, *, #116, .F. ) ;
#779 = EDGE_LOOP ( 'NONE', ( #374, #417, #606, #778 ) ) ;
#780 = UNCERTAINTY_MEASURE_WITH_UNIT (LENGTH_MEASURE( 1.000000000000000100E-005 ), #389, 'distance_accuracy_value', 'NONE');
#781 = DIRECTION ( 'NONE',  ( 1.000000000000000000, 0.0000000000000000000, 0.0000000000000000000 ) ) ;
#782 = CARTESIAN_POINT ( 'NONE',  ( 15.09224999999921700, 0.0000000000000000000, 0.0000000000000000000 ) ) ;
#783 = CARTESIAN_POINT ( 'NONE',  ( 14.40224999999921500, 0.1108799212598419900, 0.04000000000000099300 ) ) ;
#784 = DIRECTION ( 'NONE',  ( 0.0000000000000000000, 0.0000000000000000000, 1.000000000000000000 ) ) ;
#785 = DIRECTION ( 'NONE',  ( 0.0000000000000000000, 0.0000000000000000000, 1.000000000000000000 ) ) ;
#786 = EDGE_CURVE ( 'NONE', #594, #396, #206, .T. ) ;
#787 = CARTESIAN_POINT ( 'NONE',  ( 15.09224999999921700, 0.0000000000000000000, 0.0000000000000000000 ) ) ;
#788 = CC_DESIGN_APPROVAL ( #643, ( #798 ) ) ;
#789 = DIRECTION ( 'NONE',  ( 1.000000000000000000, 0.0000000000000000000, 0.0000000000000000000 ) ) ;
#790 = AXIS2_PLACEMENT_3D ( 'NONE', #52, #583, #677 ) ;
#791 = CARTESIAN_POINT ( 'NONE',  ( 14.40224999999921500, 0.1510432471181678600, 0.04000000000000099300 ) ) ;
#792 = DIRECTION ( 'NONE',  ( -0.0000000000000000000, -1.000000000000000000, -0.0000000000000000000 ) ) ;
#793 = DIRECTION ( 'NONE',  ( 0.0000000000000000000, 0.0000000000000000000, -1.000000000000000000 ) ) ;
#794 = CARTESIAN_POINT ( 'NONE',  ( 15.08224999999921700, 0.0000000000000000000, 0.1562500000000000000 ) ) ;
#795 = CARTESIAN_POINT ( 'NONE',  ( 14.34099999999999900, 2.296212748401286500E-017, -0.1874999999999999700 ) ) ;
#796 = CARTESIAN_POINT ( 'NONE',  ( 14.37224999999921600, 0.1539937092853386200, -0.02645751311064565100 ) ) ;
#797 = PLANE ( 'NONE',  #191 ) ;
#798 = PRODUCT_DEFINITION_FORMATION_WITH_SPECIFIED_SOURCE ( 'ANY', '', #260, .NOT_KNOWN. ) ;
#799 = CARTESIAN_POINT ( 'NONE',  ( 15.09224999999921700, 1.852278283710382400E-017, -0.1462500000000017400 ) ) ;
#800 = AXIS2_PLACEMENT_3D ( 'NONE', #115, #419, #27 ) ;
#801 = DIRECTION ( 'NONE',  ( 1.000000000000000000, -0.0000000000000000000, -0.0000000000000000000 ) ) ;
#802 = DIRECTION ( 'NONE',  ( 0.0000000000000000000, 0.0000000000000000000, -1.000000000000000000 ) ) ;
#803 = CARTESIAN_POINT ( 'NONE',  ( 14.37600606891400200, 0.1532619776601060200, -0.03071649493453514800 ) ) ;
#804 = AXIS2_PLACEMENT_3D ( 'NONE', #684, #397, #733 ) ;
#805 = DIRECTION ( 'NONE',  ( 1.000000000000000000, 0.0000000000000000000, 0.0000000000000000000 ) ) ;
#806 = CARTESIAN_POINT ( 'NONE',  ( 14.34099999999999900, 0.0000000000000000000, 0.1874999999999999700 ) ) ;
#807 = DIRECTION ( 'NONE',  ( 0.0000000000000000000, 0.0000000000000000000, -1.000000000000000000 ) ) ;
#808 = CARTESIAN_POINT ( 'NONE',  ( 14.40224999999921500, 0.1108799212598419900, 9.902948977032954400E-016 ) ) ;
#809 = PRODUCT_DEFINITION ( 'UNKNOWN', '', #798, #715 ) ;
#810 = DIRECTION ( 'NONE',  ( -0.7071067811612307100, 0.0000000000000000000, -0.7071067812118643200 ) ) ;
#811 = CARTESIAN_POINT ( 'NONE',  ( 14.36336835250485700, 0.1648593963422543600, -0.01057824002557319000 ) ) ;
#812 = CARTESIAN_POINT ( 'NONE',  ( 15.08224999999921700, 0.0000000000000000000, 0.0000000000000000000 ) ) ;
#813 = DIRECTION ( 'NONE',  ( 0.0000000000000000000, 0.0000000000000000000, -1.000000000000000000 ) ) ;
#814 = CARTESIAN_POINT ( 'NONE',  ( 15.09224999999921700, 8.878689293819092300E-018, 0.07250000000000639300 ) ) ;
#815 = CARTESIAN_POINT ( 'NONE',  ( 0.3750000000000001100, 0.0000000000000000000, 0.0000000000000000000 ) ) ;
#816 = CARTESIAN_POINT ( 'NONE',  ( 15.09224999999921700, 0.1510432471181678600, 0.04000000000000099300 ) ) ;
#817 = DIRECTION ( 'NONE',  ( 0.0000000000000000000, 0.0000000000000000000, -1.000000000000000000 ) ) ;
#818 = DIRECTION ( 'NONE',  ( 1.000000000000000000, -0.0000000000000000000, -0.0000000000000000000 ) ) ;
#819 = CARTESIAN_POINT ( 'NONE',  ( 14.39089567908977500, 0.1513834455737930700, 0.03876618440349771700 ) ) ;
#820 = EDGE_CURVE ( 'NONE', #632, #618, #211, .T. ) ;
#821 = CARTESIAN_POINT ( 'NONE',  ( 14.82684376368875300, 0.1529891325626564500, 0.03197781688000172300 ) ) ;
#822 = DIRECTION ( 'NONE',  ( 0.0000000000000000000, 0.0000000000000000000, -1.000000000000000000 ) ) ;
#823 = CARTESIAN_POINT ( 'NONE',  ( 13.12500000000000000, 0.0000000000000000000, 0.0000000000000000000 ) ) ;
#824 = CARTESIAN_POINT ( 'NONE',  ( 0.3749999999999999400, 0.0000000000000000000, -0.2500000000000010000 ) ) ;
#825 = AXIS2_PLACEMENT_3D ( 'NONE', #692, #447, #481 ) ;
#826 = CARTESIAN_POINT ( 'NONE',  ( 14.40224999999921500, 0.1510432471181683800, -0.03999999999999900900 ) ) ;
#827 = CARTESIAN_POINT ( 'NONE',  ( 0.1250000000000001100, 0.0000000000000000000, -0.1462499999999995700 ) ) ;
#828 = CARTESIAN_POINT ( 'NONE',  ( 15.08224999999921100, 0.0000000000000000000, 0.0000000000000000000 ) ) ;
#829 = CARTESIAN_POINT ( 'NONE',  ( 14.37600503923738200, 0.1532621782546532700, 0.03071532739099975400 ) ) ;
#830 = PLANE ( 'NONE',  #841 ) ;
#831 = CARTESIAN_POINT ( 'NONE',  ( 14.34099999999999900, 0.0000000000000000000, 0.0000000000000000000 ) ) ;
#832 = CC_DESIGN_PERSON_AND_ORGANIZATION_ASSIGNMENT ( #159, #613, ( #188 ) ) ;
#833 = CARTESIAN_POINT ( 'NONE',  ( 15.09224999999921700, 1.791045943753025700E-017, -0.1462500000000017400 ) ) ;
#834 = EDGE_CURVE ( 'NONE', #414, #485, #212, .T. ) ;
#835 = CARTESIAN_POINT ( 'NONE',  ( 0.1250000000000001100, 0.0000000000000000000, 0.0000000000000000000 ) ) ;
#836 = DIRECTION ( 'NONE',  ( 0.0000000000000000000, 0.0000000000000000000, -1.000000000000000000 ) ) ;
#837 = CARTESIAN_POINT ( 'NONE',  ( 0.1250000000000001100, 0.0000000000000000000, 0.0000000000000000000 ) ) ;
#838 = CC_DESIGN_PERSON_AND_ORGANIZATION_ASSIGNMENT ( #185, #681, ( #260 ) ) ;
#839 = DIRECTION ( 'NONE',  ( 0.0000000000000000000, 0.0000000000000000000, -1.000000000000000000 ) ) ;
#840 = CARTESIAN_POINT ( 'NONE',  ( 14.37224999999921600, 0.0000000000000000000, 0.0000000000000000000 ) ) ;
#841 = AXIS2_PLACEMENT_3D ( 'NONE', #702, #356, #777 ) ;
#842 = CARTESIAN_POINT ( 'NONE',  ( 15.08224999999921100, 7.654042494670957500E-018, 0.06250000000000000000 ) ) ;
#843 = ADVANCED_FACE ( 'NONE', ( #204 ), #198, .T. ) ;
#844 = APPLICATION_CONTEXT ( 'configuration controlled 3d designs of mechanical parts and assemblies' ) ;
#845 = CARTESIAN_POINT ( 'NONE',  ( 14.34224999999921700, 7.654042494670956000E-018, 0.06250000000000000000 ) ) ;
#846 = DIRECTION ( 'NONE',  ( -1.000000000000000000, -0.0000000000000000000, -0.0000000000000000000 ) ) ;
#847 = CARTESIAN_POINT ( 'NONE',  ( 13.12500000000000000, 0.0000000000000000000, 0.0000000000000000000 ) ) ;
#848 = EDGE_CURVE ( 'NONE', #424, #430, #199, .T. ) ;
#849 = CARTESIAN_POINT ( 'NONE',  ( 14.34224999999921700, 0.0000000000000000000, -0.06250000000000000000 ) ) ;
#850 = CC_DESIGN_PERSON_AND_ORGANIZATION_ASSIGNMENT ( #163, #369, ( #798 ) ) ;
#851 = CARTESIAN_POINT ( 'NONE',  ( 14.37224999999921600, 0.1539937092871001300, 0.02645751311064756900 ) ) ;
#852 = DIRECTION ( 'NONE',  ( 0.0000000000000000000, 0.0000000000000000000, 1.000000000000000000 ) ) ;
#853 = EDGE_CURVE ( 'NONE', #441, #403, #202, .T. ) ;
#854 = CARTESIAN_POINT ( 'NONE',  ( 13.12500000000000000, 3.061616997868395300E-017, 0.2500000000000010000 ) ) ;
#855 = CARTESIAN_POINT ( 'NONE',  ( 15.08224999999921100, 0.0000000000000000000, 0.0000000000000000000 ) ) ;
#856 = CARTESIAN_POINT ( 'NONE',  ( 14.80224999999921600, 0.1108799212598419900, -0.03999999999999900900 ) ) ;
#857 = ADVANCED_FACE ( 'NONE', ( #195 ), #84, .F. ) ;
#858 = CARTESIAN_POINT ( 'NONE',  ( 15.08224999999921100, 7.654042494670956000E-018, 0.06250000000000000000 ) ) ;
#859 = DIRECTION ( 'NONE',  ( -1.000000000000000000, -0.0000000000000000000, -0.0000000000000000000 ) ) ;
#860 = CARTESIAN_POINT ( 'NONE',  ( 0.3750000000000002200, 0.0000000000000000000, 0.0000000000000000000 ) ) ;
#861 = DIRECTION ( 'NONE',  ( 1.000000000000000000, 0.0000000000000000000, 0.0000000000000000000 ) ) ;
#862 = AXIS2_PLACEMENT_3D ( 'NONE', #860, #722, #373 ) ;
#863 = CARTESIAN_POINT ( 'NONE',  ( 14.40224999999921500, 0.1108799212598419900, -0.03999999999999900900 ) ) ;
#864 = CARTESIAN_POINT ( 'NONE',  ( 14.36948066474236000, 0.1573431233231551700, -0.02331738208781454800 ) ) ;
ENDSEC;
END-ISO-10303-21;
